<svg data-v-fde0c5aa="" xmlns="http://www.w3.org/2000/svg" viewBox="0 0 300 300" class="icon"><!----><defs data-v-fde0c5aa=""><!----></defs><rect data-v-fde0c5aa="" fill="#ECE9F4" x="0" y="0" width="300px" height="300px" class="logo-background-square"></rect><!----><defs data-v-fde0c5aa=""><!----></defs><g data-v-fde0c5aa="" id="b812ac8d-94fd-434c-81f8-7f02611a474e" fill="#422F75" stroke="none" transform="matrix(2.243387063358454,0,0,2.243387063358454,37.90468072751308,49.10092318114921)"><path d="M25.45 35.378a9.036 9.036 0 0 0-7.559 4.081c.312-.162.66-.262 1.035-.262a2.266 2.266 0 0 1 0 4.53 2.258 2.258 0 0 1-2.189-1.715 9.047 9.047 0 0 0-.336 2.416 9.05 9.05 0 1 0 9.049-9.05zM83.196 42.012a2.26 2.26 0 0 1-4.453-.551 2.266 2.266 0 0 1 2.265-2.265c.375 0 .723.1 1.033.261a9.036 9.036 0 0 0-7.558-4.08 9.05 9.05 0 1 0 9.049 9.049c0-.837-.123-1.644-.336-2.414zM83.196 42.012c.045-.177.075-.359.075-.55"></path><path d="M49.967 82.666c-5.319 0-8.09-5.439-13.048-5.22C12.197 78.545.934 65.38.934 47.642c0-13.047 12.636-22.937 12.636-22.937S3.956 11.52 9.449 7.674c3.685-2.524 16.402 8.09 22.8 8.516 8.404.558 10.902-1.373 17.718-1.373M24.9 32.34c-6.978 0-12.635 5.657-12.635 12.636 0 6.979 5.657 12.635 12.635 12.635 6.979 0 12.637-5.656 12.637-12.635-10.17-10.667-6.524-7.085-12.637-12.636zm25.067-17.524c6.816 0 9.314 1.931 17.718 1.373 6.398-.426 19.114-11.04 22.801-8.516 5.494 3.846-4.121 17.031-4.121 17.031S99 34.594 99 47.642c0 17.738-11.262 30.903-35.984 29.805-4.959-.22-7.73 5.22-13.049 5.22m12.429-37.691c0 6.979 5.657 12.635 12.637 12.635 6.979 0 12.635-5.656 12.635-12.635S82.012 32.34 75.033 32.34c-6.112 5.551-2.467 1.969-12.637 12.636zm-6.203 3.994c-2.892 2.891-3.939 3.988-6.227 3.988-2.287 0-3.335-1.097-6.227-3.988-.96-.96-1.919 6.608-.229 10.894.468 1.19 6.455 8.699 6.455 8.699s5.986-7.509 6.456-8.699c1.691-4.286.733-11.854-.228-10.894z"></path></g><!----></svg>