<?xml version="1.0" encoding="iso-8859-1"?>
<!-- Generator: Adobe Illustrator 20.1.0, SVG Export Plug-In . SVG Version: 6.00 Build 0)  -->
<svg version="1.1" id="&#x5716;&#x5C64;_1" xmlns="http://www.w3.org/2000/svg" xmlns:xlink="http://www.w3.org/1999/xlink" x="0px"
	 y="0px" viewBox="0 0 227 150" style="enable-background:new 0 0 227 150;" xml:space="preserve">
<g>
	<path style="fill:#D99A42;" d="M92.552,15.776c2.893,0.245,5.493-0.516,7.888-2.158c4.501-3.086,8.155-3.089,12.652-0.001
		c2.472,1.697,5.154,2.387,8.13,2.153c5.363-0.421,8.511,1.425,10.838,6.285c1.287,2.688,3.249,4.673,5.978,5.917
		c4.794,2.185,6.746,5.645,6.247,10.857c-0.28,2.922,0.431,5.614,2.143,8.011c3.058,4.281,3.073,8.286,0.037,12.52
		c-1.742,2.43-2.461,5.152-2.177,8.12c0.49,5.123-1.488,8.635-6.191,10.773c-2.772,1.26-4.759,3.263-6.06,5.995
		c-2.274,4.775-5.499,6.664-10.749,6.239c-3.02-0.245-5.735,0.455-8.243,2.179c-4.438,3.052-8.114,3.053-12.549,0.003
		c-2.508-1.724-5.221-2.429-8.242-2.183c-5.271,0.428-8.475-1.444-10.751-6.233c-1.3-2.736-3.292-4.735-6.059-5.996
		c-4.753-2.167-6.687-5.656-6.189-10.893c0.269-2.831-0.405-5.463-2.045-7.799c-3.195-4.55-3.207-8.337-0.036-12.822
		c1.674-2.368,2.353-5.034,2.078-7.91c-0.498-5.213,1.453-8.67,6.243-10.861c2.64-1.207,4.713-3.045,5.843-5.71
		C83.415,17.359,87.599,15.085,92.552,15.776z M135.141,28.414c-0.101-0.089-0.202-0.178-0.304-0.267
		c-0.063,0.042-0.117,0.033-0.163-0.026c-0.176-0.149-0.351-0.298-0.527-0.447c0,0,0.022,0.016,0.022,0.016
		c-0.165-0.082-0.331-0.163-0.496-0.245l-0.009-0.01c0.01-0.15,0.085-0.343,0.019-0.442c-1.134-1.695-2.41-3.309-3.406-5.081
		c-1.83-3.256-4.515-4.994-8.221-4.593c-4.049,0.438-7.524-0.643-10.802-2.949c-1.038-0.73-2.412-1.124-3.689-1.343
		c-2.318-0.397-4.324,0.54-6.19,1.878c-2.838,2.036-6.001,2.832-9.492,2.415c-3.894-0.465-7.042,1.279-8.72,4.907
		c-0.927,2.006-2.188,3.716-3.774,5.218c-0.492,0.405-0.984,0.81-1.476,1.215c-1.156,0.556-2.382,1.002-3.454,1.689
		c-2.721,1.742-3.947,4.285-3.63,7.519c0.36,3.675-0.351,7.06-2.537,10.1c-2.559,3.557-2.525,6.762,0.04,10.38
		c1.632,2.302,2.554,4.851,2.558,7.689c0.002,1.248-0.208,2.505-0.109,3.741c0.278,3.446,2.242,5.661,5.329,7.045
		c3.059,1.371,5.344,3.569,6.762,6.639c2.001,4.332,4.777,5.845,9.602,5.439c3.15-0.265,6.098,0.451,8.708,2.316
		c3.957,2.826,7.152,2.833,11.128,0.034c2.684-1.889,5.683-2.703,8.936-2.35c4.385,0.475,7.4-1.168,9.297-5.163
		c0.413-0.87,0.895-1.72,1.44-2.513c1.586-2.307,3.895-3.668,6.351-4.892c3.184-1.586,4.716-4.487,4.371-7.938
		c-0.363-3.63,0.32-6.992,2.46-10.004c2.643-3.72,2.621-6.803-0.03-10.576c-1.571-2.236-2.466-4.718-2.487-7.469
		c-0.01-1.288,0.21-2.587,0.105-3.862c-0.363-4.432-3.382-6.497-7.177-7.817c0,0,0.027,0.019,0.027,0.019
		c-0.162-0.096-0.323-0.191-0.485-0.287L135.141,28.414z"/>
	<path style="fill:#46271E;" d="M84.044,107.56c0.153,1.239,0.307,2.478,0.475,3.839c0.242-0.197,0.42-0.343,0.643-0.524
		c0,0.365,0.079,0.709-0.012,1c-0.974,3.122-2.093,6.051-5.005,8.104c-2.095,1.477-6.857,0.719-8.104-2.06
		c-0.164-0.367-0.343-0.727-0.514-1.088c-0.674,0.248-1.332,0.49-2.152,0.791c0.434,0.155,0.724,0.259,1.014,0.362
		c0.014,0.082,0.029,0.164,0.043,0.245c-0.771,0.205-1.546,0.393-2.311,0.618c-2.545,0.747-5.126,1.399-7.614,2.305
		c-1.309,0.477-2.207,0.519-2.858-0.924c0.947-0.459,0.745-1.002,0.338-1.922c-0.347-0.785,0.01-1.886,0.077-2.846
		c0.062-0.886,0.087-1.783,0.256-2.65c0.109-0.557-0.319-1.477,0.806-1.563c0.059-0.005,0.104-0.439,0.125-0.676
		c0.134-1.529,0.258-3.058,0.386-4.587c0.01-0.121-0.016-0.263,0.039-0.358c0.261-0.453,0.545-0.894,0.82-1.339
		c0.296,0.354,0.592,0.708,0.974,1.165c0.143-0.042,0.467-0.136,0.899-0.262c-0.34,3.865-0.671,7.633-1.009,11.485
		c0.733-0.109,1.365-0.202,1.997-0.296c0.012,0.066,0.025,0.132,0.037,0.198c-0.202,0.061-0.404,0.122-0.606,0.184
		c0.004,0.056,0.008,0.111,0.012,0.166c2.693-0.277,5.386-0.555,8.165-0.841c-0.271-1.736-0.385-3.686,0.922-5.296
		c1.143-1.409,2.446-2.688,3.679-4.024c0.137-0.148,0.344-0.272,0.403-0.446c0.581-1.731,2.118-2.012,3.521-1.923
		c1.436,0.092,2.891,0.604,4.226,1.188c0.465,0.203,0.596,1.169,0.879,1.787c-0.114,0.011-0.228,0.023-0.342,0.034
		c-0.068-0.044-0.135-0.088-0.203-0.132C84.048,107.371,84.046,107.466,84.044,107.56z M82.116,109.402
		c-0.017-1.54-0.381-1.947-1.904-1.941c-0.763,0.003-1.428,0.143-2.018,0.861c-0.715,0.87-1.974,1.343-2.548,2.267
		c-0.789,1.27-1.271,2.771-1.671,4.232c-0.338,1.232,0.408,2.279,1.442,2.769c0.561,0.266,1.639,0.095,2.152-0.304
		C80.131,115.291,81.843,112.739,82.116,109.402z"/>
	<path style="fill:#45271E;" d="M134.39,116.445c-0.132-0.013-0.331-0.087-0.387-0.028c-0.453,0.482-0.781,1.195-1.329,1.452
		c-2.644,1.242-5.342,2.37-8.03,3.518c-0.247,0.106-0.633,0.203-0.818,0.087c-0.966-0.603-1.596,0.023-2.249,0.584
		c-0.238-0.32-0.432-0.581-0.627-0.843c-1.695-3.334,0.239-6.556,0.712-9.916c0.316-2.246,0.597-4.496,0.925-6.981
		c0.578-0.283,1.298-0.665,2.457-0.224c0.947,0.36,2.192-0.066,3.306-0.143c0.143-0.01,0.328-0.082,0.424-0.019
		c1.73,1.137,3.603,2.132,4.408,4.231c0.04,0.105,0.005,0.238,0.005,0.113c-1.095,1.003-2.058,1.885-3.02,2.766
		c0.013,0.076,0.026,0.152,0.039,0.228c0.661-0.2,1.322-0.4,2.218-0.671c-0.451,0.527-0.786,0.919-0.905,1.058
		c0.872,1.307,1.689,2.531,2.472,3.704c-0.232,0.115-0.385,0.191-0.607,0.302c0.371,0.31,0.672,0.562,0.974,0.815L134.39,116.445z
		 M124.519,113.75c-0.214,1.335-0.408,2.546-0.634,3.961c2.995-0.325,5.294-1.673,7.914-3.182
		C129.276,113.053,126.926,113.633,124.519,113.75z M131.348,108.188c-0.006-0.2-0.012-0.4-0.018-0.599
		c-1.145-0.296-2.277-0.769-3.437-0.85c-2.172-0.152-2.939,0.945-2.343,3.137C127.593,109.634,129.808,109.918,131.348,108.188z"/>
	<path style="fill:#46271E;" d="M134.357,116.479c0.702-1.556,1.407-3.111,2.105-4.668c0.213-0.475,0.411-0.958,0.655-1.527
		c0.211,0.189,0.378,0.338,0.848,0.758c-0.677-1.767-0.432-2.978,0.782-3.987c-0.237-0.477,0.359-3.208,0.71-3.098
		c1.276,0.397,2.441-1.123,3.71-0.105c0.279,0.224,0.753,0.204,1.176,0.306c0.539,2.335,1.081,4.682,1.632,7.067
		c0.431,0.042,0.82,0.08,1.547,0.151c-0.586,0.169-0.864,0.25-1.143,0.331c-0.013,0.104-0.026,0.207-0.039,0.311
		c0.683,0.137,1.366,0.275,2.049,0.412c0.031,0.07,0.062,0.141,0.093,0.211c-0.626,0.253-1.252,0.506-1.749,0.707
		c0,3.345,0,6.679,0,9.789c-0.413,0.236-0.867,0.494-1.385,0.789c-0.339-1.093-0.68-2.193-1.069-3.449
		c-0.115,0.35-0.182,0.554-0.25,0.759c-0.063,0.006-0.125,0.011-0.188,0.017c0-1.584,0-3.169,0-4.753
		c-0.162,0.066-0.325,0.131-0.487,0.197c-0.147-0.272-0.444-0.564-0.411-0.812c0.066-0.492,0.314-0.959,0.596-1.74
		c-1.551,0.335-2.816,0.608-4.08,0.881c0.001,0.049,0.001,0.099,0.002,0.148c0.827,0.058,1.655,0.116,2.482,0.174
		c0.028,0.051,0.057,0.103,0.085,0.154c-0.434,0.134-0.859,0.317-1.302,0.394c-1.753,0.308-3.083,1.001-3.395,3.003
		c-0.112,0.719-0.616,1.377-0.965,2.113c-0.495-0.117-0.943-0.222-1.456-0.343c0.082-0.473,0.152-0.874,0.222-1.276
		c-0.085-0.028-0.17-0.057-0.255-0.085c-0.196,0.472-0.392,0.944-0.602,1.451c-0.431-1.469-0.549-2.9,0.115-4.314
		C134.39,116.445,134.357,116.479,134.357,116.479z M141.592,108.041c-0.186,0.346-0.297,0.508-0.365,0.686
		c-0.467,1.229-0.926,2.461-1.393,3.707c1.733,0.187,2.756-0.407,2.549-1.492C142.208,110.023,141.895,109.128,141.592,108.041z"/>
	<path style="fill:#47281F;" d="M99.699,107.353c-0.621,0.227-0.594,1.644,0.127,4.206c0.12-0.247,0.209-0.433,0.335-0.692
		c0.085,0.147,0.2,0.256,0.179,0.321c-0.492,1.52-1.043,3.022-1.492,4.554c-0.535,1.827-1.879,2.947-3.322,3.99
		c-2.147,1.552-5.396,1.496-7.214-0.433c-2.358-2.5-3.492-5.525-1.106-8.761c0.998-1.354,2.308-2.478,3.473-3.709
		c0.276-0.292,0.538-0.596,0.829-0.92c-0.2-0.107-0.363-0.195-0.673-0.361c1.629-1.031,3.311-1.349,5.095-1.1
		C97.674,104.689,99.287,105.187,99.699,107.353z M97.277,109.981c0.018-2.055-0.255-2.395-1.683-2.499
		c-0.83-0.061-1.559,0.058-2.206,0.811c-0.713,0.829-1.945,1.274-2.498,2.166c-0.811,1.311-1.336,2.837-1.763,4.334
		c-0.351,1.233,0.395,2.298,1.431,2.8c0.56,0.271,1.65,0.098,2.167-0.304C95.294,115.29,96.982,112.71,97.277,109.981z"/>
	<path style="fill:#47291F;" d="M102.88,122.771c-0.529-0.266-1.092-0.549-1.948-0.98c0.244-2.752,0.443-5.602,0.782-8.436
		c0.094-0.787,0.628-1.514,0.907-2.288c0.168-0.466,0.375-0.901-0.4-1.228c-0.515-0.217-0.906-0.872-1.212-1.41
		c-0.583-1.024-0.185-1.94,0.936-2.466c0.57-0.268,1.111-0.596,1.656-0.892c-0.338-0.516-0.596-0.91-0.996-1.521
		c2.284,0.535,2.284,0.535,2.517,1.082c0.174-0.126,0.397-0.397,0.516-0.357c1.627,0.547,3.29,0.614,4.986,0.531
		c1.291-0.063,2.297,1.079,2.21,2.418c-0.038,0.59,0.108,1.36-0.205,1.736c-1.981,2.378-3.349,5.461-6.784,6.256
		c-1.369,0.317-1.866,1.137-1.713,2.515C104.327,119.502,104.111,121.208,102.88,122.771z M109.986,108.287
		c-0.072-0.115-0.143-0.23-0.215-0.345c-4.433,0.1-5.007,0.604-4.419,3.951C106.982,110.625,108.484,109.456,109.986,108.287z"/>
	<path style="fill:#482A21;" d="M151.571,104.643c0.561-0.042,1.126-0.16,1.676-0.111c1.185,0.106,1.737,1.009,1.38,2.227
		c-1.221,4.159-1.679,8.4-1.649,12.732c0.006,0.884-0.739,1.8-1.247,2.636c-0.083,0.137-0.762,0.003-1.107-0.143
		c-0.215-0.091-0.377-0.421-0.465-0.677c-0.18-0.519-0.296-1.06-0.433-1.594c-0.048-0.189-0.126-0.387-0.111-0.574
		c0.167-2.09,0.252-4.194,0.555-6.265c0.322-2.2,0.866-4.367,1.285-6.554C151.55,105.823,151.529,105.303,151.571,104.643z"/>
	<path style="fill:#4A2D24;" d="M150.674,137.479c0.799-0.147,1.598-0.293,2.511-0.461c-0.393,1.102-0.891,1.806-2.081,1.752
		c-1.045-0.047-2.095,0.024-3.14-0.031c-0.296-0.016-0.579-0.288-0.868-0.443c0.204-0.267,0.353-0.634,0.623-0.782
		c1.09-0.598,2.238-1.091,3.316-1.707c0.285-0.163,0.398-0.626,0.59-0.951c-0.401-0.002-0.842-0.11-1.193,0.022
		c-0.431,0.163-0.754,0.659-1.183,0.763c-0.372,0.09-0.828-0.165-1.246-0.267c0.223-0.282,0.399-0.741,0.678-0.816
		c1.232-0.332,2.486-0.627,3.751-0.77c0.372-0.042,1.042,0.387,1.148,0.731c0.114,0.372-0.14,1.078-0.469,1.32
		c-0.753,0.555-1.648,0.917-2.485,1.358C150.642,137.29,150.658,137.384,150.674,137.479z"/>
	<path style="fill:#492B21;" d="M157.604,138.902c-0.269-0.164-1.13-0.394-1.287-0.861c-0.186-0.553,0.025-1.512,0.435-1.936
		c0.823-0.852,1.812-1.779,2.896-2.071c0.922-0.249,2.118,0.242,3.089,0.652c0.229,0.097,0.273,1.312,0.004,1.789
		C161.725,138.277,159.923,138.734,157.604,138.902z M157.592,137.468c1.491,0.469,3.427-0.379,3.889-1.574
		c0.267-0.689-0.084-1.141-0.71-0.912C159.512,135.44,158.287,136.048,157.592,137.468z"/>
	<path style="fill:#4B2D24;" d="M174.553,136.84c-0.494,0.154-0.988,0.425-1.484,0.427c-0.41,0.002-1.019-0.209-1.18-0.515
		c-0.174-0.331-0.094-1.025,0.158-1.311c1.16-1.312,2.691-1.861,4.428-1.684c1.024,0.104,1.335,0.801,1.097,1.743
		c-0.391,1.55-3.281,3.83-4.899,3.878c-0.093,0.003-0.191-0.116-0.405-0.255c0.852-0.704,1.655-1.368,2.457-2.032
		c0.085-0.094,0.169-0.189,0.254-0.283c0.242-0.517,0.535-1.02,0.688-1.562c0.035-0.124-0.525-0.599-0.623-0.548
		c-0.608,0.314-1.161,0.732-1.733,1.116c0.068,0.125,0.136,0.25,0.204,0.375c0.466,0,0.933,0,1.501,0
		c-0.163,0.276-0.258,0.437-0.353,0.598C174.611,136.769,174.573,136.787,174.553,136.84z"/>
	<path style="fill:#4B2D24;" d="M128.572,136.553c-0.657,0.493-1.271,1.064-1.981,1.461c-1.214,0.678-1.546,0.528-2.133-0.822
		c-0.685,0.432-1.336,0.891-2.035,1.258c-0.272,0.143-0.754,0.222-0.956,0.076c-0.214-0.156-0.311-0.623-0.281-0.937
		c0.169-1.764,0.914-2.535,2.362-2.426c-0.058,0.412-0.115,0.818-0.196,1.394c0.43-0.259,0.727-0.426,1.013-0.611
		c1.354-0.878,1.585-0.774,1.745,1.054c0.545-0.285,1.033-0.482,1.454-0.776c0.535-0.373,0.848-0.326,0.99,0.339L128.572,136.553z"
		/>
	<path style="fill:#4D3027;" d="M138.894,137.164c0.765-0.474,1.53-0.948,2.588-1.603c-0.186,0.577-0.196,0.875-0.35,1.04
		c-1.248,1.344-2.738,2.27-4.632,2.14c-0.5-0.034-1.176-0.453-1.384-0.882c-0.175-0.361,0.047-1.202,0.382-1.467
		c0.796-0.631,1.733-1.121,2.677-1.511c0.345-0.143,0.874,0.158,1.318,0.256c-0.175,0.444-0.327,0.9-0.538,1.327
		c-0.081,0.165-0.296,0.264-0.449,0.393c-0.317,0.174-0.634,0.348-0.951,0.523c0.033,0.077,0.066,0.154,0.099,0.232
		C138.067,137.463,138.48,137.314,138.894,137.164z"/>
	<path style="fill:#4B2E25;" d="M128.554,136.563c0.207-0.091,0.415-0.178,0.619-0.274c1-0.469,1.986-0.976,3.011-1.381
		c0.191-0.075,0.543,0.256,0.82,0.4c-0.199,0.265-0.351,0.604-0.613,0.771c-0.199,0.127-0.576-0.046-0.806,0.06
		c-0.334,0.154-0.607,0.439-0.906,0.668c0.337,0.214,0.71,0.644,1.003,0.595c0.567-0.095,1.104-0.431,1.623-0.721
		c0.48-0.268,0.921-0.606,1.572-1.041c-0.061,0.44-0.018,0.703-0.129,0.846c-1.057,1.364-2.411,2.237-4.178,2.289
		c-1.337,0.039-1.827-0.531-1.783-1.915c0.003-0.101-0.14-0.206-0.216-0.308C128.572,136.553,128.554,136.563,128.554,136.563z"/>
	<path style="fill:#4D3027;" d="M109.852,137.284c-0.335-0.201-0.579-0.348-0.823-0.495c0.15-0.224,0.262-0.49,0.456-0.663
		c0.668-0.595,1.366-1.158,2.096-1.769c0.568,1.077,0.976,1.852,1.384,2.626c0.517-0.324,1.069-0.67,1.711-1.073
		c-0.031,1.235-1.535,2.578-2.966,2.81c-0.354,0.058-0.727,0.072-1.084,0.037C109.577,138.653,109.372,138.248,109.852,137.284z
		 M110.619,136.187c-0.344,0.38-0.614,0.678-1.028,1.133c0.656-0.052,1.108-0.088,1.705-0.136
		C111.038,136.804,110.874,136.562,110.619,136.187z"/>
	<path style="fill:#4D3027;" d="M117.145,137.251c1.611,0.478,2.236-1.28,3.492-1.413c-0.115,1.472-2.605,3.31-3.928,2.902
		c-0.875-0.27-1.312-0.915-1.181-1.847c0.126-0.895,1.342-2.144,1.993-1.988c0.231,0.055,0.564,0.588,0.5,0.793
		C117.86,136.208,117.499,136.656,117.145,137.251z"/>
	<path style="fill:#4A2D24;" d="M165.956,135.799c0.246-1.173,1.56-1.975,3.202-1.899c-0.289,1.777-1.038,3.341-2.016,4.778
		c-0.175,0.257-0.905,0.137-1.644,0.221c0.52-1.195,0.913-2.1,1.349-3.101C166.507,135.799,166.239,135.799,165.956,135.799z"/>
	<path style="fill:#422119;" d="M134.674,28.12c0.046,0.06,0.101,0.068,0.163,0.026c0.101,0.089,0.202,0.178,0.303,0.267
		c0,0-0.02-0.015-0.02-0.015c0.162,0.096,0.323,0.191,0.485,0.287c0,0-0.027-0.019-0.027-0.019c0.29,0.44,0.659,0.847,0.854,1.325
		c0.571,1.398,1.407,2.794,1.535,4.245c0.309,3.511-1.343,6.106-4.589,7.762c3.112,5.433,4.133,11.331,4.279,17.468
		c0.043,1.783,0.161,3.621,1.187,5.25c0.493,0.783-0.172,1.816-1.13,1.751c-1.017-0.069-2.017-0.384-2.871-0.56
		c-0.697,3.454-1.386,7.001-2.157,10.531c-0.11,0.504-0.528,1.14-0.963,1.311c-0.368,0.145-0.983-0.261-1.454-0.492
		c-0.225-0.111-0.372-0.382-0.562-0.589c-0.539,0.625-1.017,1.226-1.543,1.782c-4.182,4.418-9.551,6.117-15.403,6.703
		c-1.243,0.124-1.71-0.575-1.715-1.712c-2.906,1.032-5.743,1.035-8.577,0.028c-0.237,1.4-0.577,1.774-1.761,1.672
		c-5.002-0.431-9.667-1.833-13.642-5.034c-1.241-0.999-2.375-2.13-3.565-3.208c-0.065,0.078-0.223,0.43-0.483,0.542
		c-0.448,0.192-1.014,0.413-1.428,0.286c-0.351-0.107-0.719-0.654-0.805-1.063c-0.756-3.609-1.451-7.231-2.163-10.845
		c-0.529,0.175-1.204,0.548-1.898,0.586c-0.655,0.036-1.521-0.092-1.927-0.508c-0.271-0.277,0.066-1.191,0.197-1.806
		c0.1-0.469,0.394-0.904,0.448-1.372c0.198-1.723,0.436-3.451,0.469-5.18c0.064-3.379,0.526-6.679,1.675-9.857
		c0.707-1.955,1.549-3.862,2.332-5.793c-3.757-1.979-5.359-5.448-4.114-9.48c0.414-1.339,1.39-2.504,2.109-3.749
		c0.492-0.405,0.984-0.81,1.476-1.215c1.25-0.278,2.496-0.764,3.752-0.794c3.277-0.077,5.662,1.542,7.22,4.302
		c10.951-6.169,21.831-6.102,32.696-0.038c0.486-0.628,0.909-1.332,1.479-1.884c2.668-2.585,5.733-3.073,9.127-1.598
		c0,0,0.009,0.01,0.009,0.01c0.165,0.082,0.331,0.164,0.496,0.245c0,0-0.022-0.016-0.022-0.016
		C134.323,27.822,134.498,27.971,134.674,28.12z M105.337,29.083c-0.77,0.093-1.401,0.167-2.031,0.246
		c-8.733,1.091-15.391,5.48-20.14,12.804c-2.878,4.439-4.206,9.401-4.5,14.645c-0.102,1.818-0.016,3.646-0.016,5.412
		c0.323-0.087,0.777-0.295,1.24-0.315c1.075-0.046,1.682,0.702,1.697,2.034c0.036,3.072,0.281,6.111,1.28,9.108
		c1.264-0.618,1.894-0.102,2.608,0.938c1.057,1.542,2.274,3.036,3.672,4.269c2.675,2.359,8.439,4.284,11.367,4.084
		c-0.397-0.707-0.945-1.397-1.179-2.182c-0.228-0.764-0.628-1.085-1.322-1.367c-1.892-0.768-3.485-1.943-4.147-3.977
		c-0.708-2.175-2.04-3.872-3.57-5.532c-1.208-1.311-2.307-2.837-3.029-4.457c-1.356-3.042-1.444-6.253-0.388-9.455
		c0.27-0.817,0.728-1.401,1.669-1.172c1.013,0.246,1.154,1.009,0.931,1.902c-0.088,0.352-0.203,0.698-0.284,1.051
		c-1.159,5.042,1.209,9.279,5.215,12.275c0.379-0.772,1.068-1.522,1.038-2.243c-0.068-1.652,0.524-3.117,2.055-3.728
		c0.929-0.371,1.914-0.717,2.899-0.811c2.399-0.23,4.812-0.401,7.221-0.419c2.781-0.02,5.572,0.059,8.223,1.121
		c1.538,0.617,2.58,1.838,2.258,3.298c-0.282,1.277,0.385,1.79,1.119,2.432c0.541-0.572,1.011-1.131,1.543-1.624
		c3.539-3.278,4.687-7.21,3.299-11.857c-0.268-0.897-0.064-1.647,0.92-1.914c0.954-0.259,1.395,0.348,1.664,1.161
		c0.902,2.729,0.86,5.452,0.099,8.214c-0.796,2.89-2.744,4.96-4.67,7.103c-0.86,0.957-1.643,2.16-1.971,3.383
		c-0.741,2.757-2.381,4.5-4.995,5.462c-0.3,0.111-0.643,0.346-0.78,0.617c-0.464,0.918-0.845,1.878-1.287,2.889
		c1.333-0.252,2.767-0.418,4.14-0.801c4.514-1.262,8.538-3.3,10.869-7.645c0.627-1.169,1.345-1.637,2.644-1.019
		c0.202-0.751,0.464-1.399,0.54-2.068c0.271-2.401,0.506-4.806,0.7-7.214c0.131-1.626,1.17-2.275,2.662-1.591
		c0.154,0.071,0.328,0.101,0.645,0.196c-0.276-3.154-0.309-6.202-0.841-9.16c-2.12-11.785-8.785-19.691-20.396-23.126
		c-1.85-0.547-3.816-0.703-5.783-1.05c0,1.182,0,2.055,0,2.964c0.486,0.105,0.912,0.215,1.344,0.286
		c3.028,0.497,5.691,1.73,7.926,3.861c0.679,0.648,0.969,1.339,0.272,2.1c-0.703,0.768-1.417,0.506-2.108-0.109
		c-2.105-1.87-4.537-3.02-7.424-3.337c-0.029,0.364-0.035,0.681-0.083,0.992c-0.182,1.177,0.195,1.678,1.47,2.045
		c1.582,0.456,3.03,1.43,4.475,2.282c0.801,0.472,1.022,1.327,0.435,2.09c-0.612,0.796-1.418,0.589-2.146,0.053
		c-0.227-0.167-0.41-0.41-0.655-0.536c-1.088-0.558-2.19-1.086-3.576-1.766c0,1.324-0.029,2.241,0.008,3.156
		c0.04,0.985-0.113,1.821-1.307,1.911c-1.041,0.079-1.464-0.482-1.471-1.855c-0.005-0.95-0.001-1.9-0.001-2.923
		c-1.827,0.186-3.178,0.892-4.383,1.978c-0.661,0.596-1.449,0.823-2.124,0.01c-0.671-0.809-0.291-1.481,0.39-2.088
		c1.482-1.32,3.162-2.24,5.142-2.513c0.752-0.104,1.059-0.426,0.984-1.187c-0.053-0.539-0.01-1.087-0.01-1.653
		c-2.979,0.276-5.39,1.377-7.502,3.195c-1.053,0.906-1.794,0.939-2.382,0.145c-0.699-0.944-0.075-1.521,0.592-2.138
		c1.913-1.769,4.114-2.967,6.663-3.522c0.856-0.186,1.71-0.377,2.585-0.57C105.337,30.975,105.337,30.136,105.337,29.083z
		 M115.47,66.657c-1.313-2.255-15.43-2.361-17.443-0.088c0.454,0.158,0.825,0.357,1.217,0.413c2.419,0.348,4.131,1.667,5.347,3.739
		c0.365,0.621,0.844,1.177,1.292,1.747c0.597,0.76,1.235,0.679,1.81-0.009c0.49-0.586,0.966-1.193,1.369-1.84
		c1.289-2.067,3.032-3.418,5.517-3.69C114.874,66.898,115.156,66.757,115.47,66.657z M88.001,32.336
		c-0.745-1.601-2.092-2.767-4.11-2.978c-2.205-0.23-3.832,0.838-4.955,2.618c-1.618,2.566-0.754,5.95,1.788,7.18
		c0.315,0.152,0.979,0.086,1.198-0.146C83.931,36.879,85.876,34.689,88.001,32.336z M125.479,32.385
		c1.927,2.046,3.766,3.901,5.486,5.861c1.206,1.374,1.434,1.475,2.832,0.298c0.213-0.179,0.399-0.4,0.564-0.626
		c1.258-1.729,1.386-3.588,0.45-5.466c-0.967-1.939-2.502-3.155-4.775-3.103C127.834,29.399,126.395,30.613,125.479,32.385z
		 M109.177,75.058c1.922,2.513,6.662,1.804,7.877-1.011c0.608-1.407,0.307-3.282-0.698-4.006c-1.115-0.802-2.857-0.492-4.047,0.737
		c-0.251,0.259-0.476,0.548-0.688,0.842C110.806,72.754,110.002,73.896,109.177,75.058z M104.391,75.109
		c-0.753-1.081-1.377-2.011-2.038-2.914c-0.427-0.583-0.849-1.19-1.377-1.673c-1.064-0.974-2.724-1.192-3.697-0.581
		c-0.915,0.574-1.361,2.109-1.002,3.5c0.431,1.669,1.634,2.536,3.201,2.96C101.385,76.915,103.033,76.43,104.391,75.109z
		 M111.487,79.578c-1.734-0.973-3.282-1.841-4.716-2.646c-1.498,0.782-3.101,1.619-4.774,2.493c0.857,1.694,2.454,1.983,4.062,2.032
		C108.105,81.52,110.173,81.434,111.487,79.578z"/>
	<path style="fill:#EDEAE9;" d="M174.665,136.787c0.095-0.161,0.19-0.321,0.353-0.598c-0.568,0-1.035,0-1.501,0
		c-0.068-0.125-0.136-0.25-0.204-0.375c0.572-0.384,1.126-0.801,1.733-1.116c0.098-0.051,0.658,0.424,0.623,0.548
		c-0.152,0.542-0.446,1.045-0.688,1.562C174.876,136.801,174.77,136.794,174.665,136.787z"/>
	<path style="fill:#D79539;" d="M105.337,29.083c0,1.052,0,1.892,0,2.791c-0.875,0.193-1.729,0.384-2.585,0.57
		c-2.549,0.555-4.75,1.753-6.663,3.522c-0.667,0.617-1.291,1.194-0.592,2.138c0.588,0.794,1.329,0.761,2.382-0.145
		c2.112-1.818,4.523-2.919,7.502-3.195c0,0.566-0.042,1.114,0.01,1.653c0.074,0.761-0.233,1.083-0.984,1.187
		c-1.98,0.273-3.661,1.193-5.142,2.513c-0.681,0.607-1.061,1.279-0.39,2.088c0.674,0.813,1.462,0.586,2.124-0.01
		c1.205-1.086,2.556-1.793,4.383-1.978c0,1.022-0.004,1.972,0.001,2.923c0.007,1.373,0.43,1.934,1.471,1.855
		c1.194-0.09,1.348-0.926,1.307-1.911c-0.037-0.915-0.008-1.832-0.008-3.156c1.385,0.68,2.488,1.208,3.576,1.766
		c0.245,0.126,0.428,0.368,0.655,0.536c0.728,0.536,1.534,0.743,2.146-0.053c0.586-0.763,0.366-1.618-0.435-2.09
		c-1.445-0.852-2.893-1.827-4.475-2.282c-1.274-0.367-1.652-0.869-1.47-2.045c0.048-0.311,0.054-0.628,0.083-0.992
		c2.887,0.317,5.319,1.467,7.424,3.337c0.691,0.614,1.405,0.876,2.108,0.109c0.696-0.761,0.407-1.452-0.272-2.1
		c-2.235-2.132-4.898-3.364-7.926-3.861c-0.432-0.071-0.858-0.182-1.344-0.286c0-0.909,0-1.782,0-2.964
		c1.967,0.347,3.933,0.503,5.783,1.05c11.612,3.435,18.276,11.341,20.396,23.126c0.532,2.958,0.566,6.006,0.841,9.16
		c-0.317-0.095-0.49-0.125-0.645-0.196c-1.492-0.685-2.531-0.036-2.662,1.591c-0.194,2.408-0.429,4.813-0.7,7.214
		c-0.075,0.669-0.338,1.317-0.54,2.068c-1.299-0.618-2.017-0.15-2.644,1.019c-2.331,4.345-6.355,6.384-10.869,7.645
		c-1.373,0.384-2.806,0.549-4.14,0.801c0.442-1.011,0.823-1.972,1.287-2.889c0.137-0.271,0.48-0.506,0.78-0.617
		c2.614-0.963,4.254-2.706,4.995-5.462c0.329-1.223,1.111-2.426,1.971-3.383c1.927-2.143,3.874-4.212,4.67-7.103
		c0.761-2.763,0.803-5.485-0.099-8.214c-0.269-0.813-0.71-1.42-1.664-1.161c-0.983,0.267-1.187,1.017-0.92,1.914
		c1.388,4.648,0.24,8.579-3.299,11.857c-0.532,0.493-1.002,1.051-1.543,1.624c-0.733-0.641-1.401-1.154-1.119-2.432
		c0.322-1.461-0.719-2.682-2.258-3.298c-2.651-1.063-5.442-1.142-8.223-1.121c-2.409,0.018-4.822,0.189-7.221,0.419
		c-0.985,0.094-1.97,0.44-2.899,0.811c-1.531,0.611-2.122,2.076-2.055,3.728c0.03,0.721-0.659,1.471-1.038,2.243
		c-4.006-2.996-6.374-7.232-5.215-12.275c0.081-0.353,0.196-0.699,0.284-1.051c0.223-0.894,0.082-1.656-0.931-1.902
		c-0.941-0.229-1.4,0.355-1.669,1.172c-1.056,3.202-0.969,6.414,0.388,9.455c0.722,1.62,1.821,3.146,3.029,4.457
		c1.53,1.66,2.861,3.357,3.57,5.532c0.662,2.033,2.255,3.209,4.147,3.977c0.694,0.282,1.095,0.604,1.322,1.367
		c0.234,0.784,0.782,1.475,1.179,2.182c-2.928,0.2-8.692-1.726-11.367-4.084c-1.398-1.232-2.615-2.727-3.672-4.269
		c-0.713-1.04-1.344-1.557-2.608-0.938c-0.999-2.997-1.244-6.036-1.28-9.108c-0.015-1.332-0.623-2.08-1.697-2.034
		c-0.463,0.02-0.917,0.229-1.24,0.315c0-1.766-0.086-3.594,0.016-5.412c0.294-5.244,1.622-10.206,4.5-14.645
		c4.749-7.325,11.407-11.713,20.14-12.804C103.936,29.251,104.567,29.176,105.337,29.083z M120.227,50.391
		c0.006-2.208-1.871-4.054-4.107-4.039c-2.22,0.015-4.028,1.882-4.005,4.135c0.022,2.156,1.879,3.987,4.041,3.984
		C118.398,54.469,120.221,52.641,120.227,50.391z M101.416,50.395c-0.011-2.231-1.868-4.061-4.101-4.042
		c-2.168,0.019-4.005,1.85-4.021,4.009c-0.017,2.239,1.819,4.1,4.047,4.1C99.58,54.461,101.427,52.618,101.416,50.395z"/>
	<path style="fill:#D69439;" d="M115.47,66.657c-0.314,0.099-0.597,0.241-0.891,0.273c-2.485,0.271-4.228,1.623-5.517,3.69
		c-0.403,0.647-0.879,1.254-1.369,1.84c-0.575,0.688-1.213,0.77-1.81,0.009c-0.448-0.57-0.927-1.126-1.292-1.747
		c-1.217-2.073-2.928-3.391-5.347-3.739c-0.392-0.056-0.763-0.255-1.217-0.413C100.041,64.296,114.158,64.403,115.47,66.657z"/>
	<path style="fill:#D69439;" d="M88.001,32.336c-2.126,2.353-4.071,4.543-6.078,6.674c-0.219,0.232-0.883,0.298-1.198,0.146
		c-2.542-1.231-3.407-4.614-1.788-7.18c1.123-1.78,2.75-2.848,4.955-2.618C85.909,29.569,87.256,30.736,88.001,32.336z"/>
	<path style="fill:#D69439;" d="M125.479,32.385c0.916-1.771,2.355-2.985,4.557-3.036c2.273-0.052,3.808,1.164,4.775,3.103
		c0.937,1.878,0.808,3.738-0.45,5.466c-0.165,0.226-0.35,0.447-0.564,0.626c-1.398,1.176-1.626,1.075-2.832-0.298
		C129.245,36.286,127.406,34.431,125.479,32.385z"/>
	<path style="fill:#C8CCC6;" d="M104.391,75.109c-1.358,1.32-3.006,1.806-4.912,1.291c-1.567-0.423-2.77-1.29-3.201-2.96
		c-0.359-1.391,0.087-2.926,1.002-3.5c0.973-0.61,2.633-0.393,3.697,0.581c0.528,0.483,0.95,1.09,1.377,1.673
		C103.014,73.098,103.638,74.028,104.391,75.109z"/>
	<path style="fill:#D59338;" d="M111.487,79.578c-1.315,1.856-3.382,1.942-5.428,1.88c-1.608-0.049-3.204-0.338-4.062-2.032
		c1.673-0.874,3.277-1.711,4.774-2.493C108.206,77.737,109.753,78.605,111.487,79.578z"/>
	<path style="fill:#412118;" d="M120.227,50.391c-0.006,2.25-1.829,4.078-4.07,4.081c-2.162,0.003-4.019-1.828-4.041-3.984
		c-0.023-2.254,1.785-4.12,4.005-4.135C118.355,46.337,120.233,48.183,120.227,50.391z M117.444,50.961
		c0.093-1.303-0.426-1.929-1.201-1.85c-0.508,0.052-1.204,0.685-1.359,1.197c-0.218,0.721,0.356,1.399,1.143,1.346
		C116.579,51.617,117.101,51.141,117.444,50.961z"/>
	<path style="fill:#412118;" d="M101.416,50.395c0.011,2.223-1.836,4.067-4.075,4.067c-2.228,0-4.065-1.86-4.047-4.1
		c0.017-2.159,1.854-3.99,4.021-4.009C99.548,46.334,101.404,48.164,101.416,50.395z M97.075,51.915
		c0.188-0.002,0.375-0.003,0.563-0.005c0.355-0.492,0.942-0.955,1.011-1.484c0.105-0.805-0.514-1.369-1.349-1.336
		c-0.763,0.03-1.36,0.55-1.199,1.338C96.211,50.968,96.735,51.423,97.075,51.915z"/>
	<path style="fill:#E5DEC5;" d="M117.444,50.961c-0.343,0.179-0.865,0.656-1.417,0.693c-0.787,0.053-1.361-0.625-1.143-1.346
		c0.155-0.512,0.851-1.145,1.359-1.197C117.018,49.033,117.536,49.658,117.444,50.961z"/>
	<path style="fill:#E5DEC5;" d="M97.075,51.915c-0.339-0.493-0.864-0.947-0.974-1.487c-0.161-0.788,0.436-1.309,1.199-1.338
		c0.834-0.032,1.454,0.531,1.349,1.336c-0.069,0.53-0.656,0.992-1.011,1.484C97.45,51.912,97.262,51.914,97.075,51.915z"/>
</g>
</svg>
