<svg data-v-fde0c5aa="" xmlns="http://www.w3.org/2000/svg" viewBox="0 0 300 300" class="iconAbove"><!----><defs data-v-fde0c5aa=""><!----></defs><rect data-v-fde0c5aa="" fill="#ECE9F4" x="0" y="0" width="300px" height="300px" class="logo-background-square"></rect><defs data-v-fde0c5aa=""><!----></defs><g data-v-fde0c5aa="" id="0630e07a-0772-48fd-8ca4-9853cb993090" fill="#282335" transform="matrix(4.409517440394004,0,0,4.409517440394004,40.33775092214536,174.63173966261624)"><path d="M0.46 12.66L0.46 12.66L0.46 12.66Q0.46 12.64 0.45 11.98L0.45 11.98L0.43 11.33L0.43 11.33Q0.39 9.09 1.79 7.28L1.79 7.28L1.79 7.28Q3.28 5.38 5.57 5.38L5.57 5.38L5.57 5.38Q7.15 5.38 8.02 6.96L8.02 6.96L8.02 6.96Q8.72 8.23 8.72 9.93L8.72 9.93L8.72 9.93Q8.72 12.15 7.62 13.89L7.62 13.89L7.62 13.89Q6.34 15.89 4.24 15.89L4.24 15.89L4.24 15.89Q2.91 15.89 1.81 14.93L1.81 14.93L1.81 14.93Q0.70 13.97 0.46 12.66ZM4.66 13.64L4.66 13.64L4.66 13.64Q4.80 13.65 5.15 13.79L5.15 13.79L5.15 13.79Q5.46 13.93 5.64 13.93L5.64 13.93L5.64 13.93Q5.88 13.93 6.20 13.78L6.20 13.78L6.20 13.78Q6.92 12.63 6.92 11.48L6.92 11.48L6.92 11.48Q6.92 10.04 6.40 8.97L6.40 8.97L6.40 8.97Q5.73 7.60 4.44 7.60L4.44 7.60L4.44 7.60Q3.96 7.60 3.78 8.04L3.78 8.04L3.78 8.04Q3.75 8.18 3.56 8.90L3.56 8.90L3.56 8.90Q3.42 9.44 3.12 9.58L3.12 9.58L3.12 9.58Q3.01 9.53 2.98 9.44L2.98 9.44L2.98 9.44Q2.84 9.03 2.84 8.60L2.84 8.60L2.84 8.60Q2.55 9.02 2.55 10.11L2.55 10.11L2.55 10.11Q2.55 11.90 4.66 13.64ZM9.60 12.45L9.60 12.45L9.60 12.45Q9.60 10.70 10.68 9.34L10.68 9.34L10.68 9.34Q11.83 7.87 13.54 7.87L13.54 7.87L13.54 7.87Q14.92 7.87 15.61 8.85L15.61 8.85L15.61 8.85Q16.21 9.70 16.21 11.13L16.21 11.13L16.21 11.13Q16.21 12.68 15.27 14L15.27 14L15.27 14Q14.24 15.46 12.70 15.46L12.70 15.46L12.70 15.46Q11.55 15.46 10.58 14.52L10.58 14.52L10.58 14.52Q9.60 13.58 9.60 12.45ZM11.55 11.28L11.55 11.28L11.55 11.28Q11.55 12.46 13.12 13.76L13.12 13.76L13.30 13.76L13.30 13.76Q13.44 13.78 13.47 13.78L13.47 13.78L13.47 13.78Q13.96 13.78 14.20 13.26L14.20 13.26L14.20 13.26Q14.38 12.87 14.38 12.31L14.38 12.31L14.38 12.31Q14.38 11.34 14.07 10.58L14.07 10.58L14.07 10.58Q13.64 9.53 12.82 9.53L12.82 9.53L12.82 9.53Q12.47 9.53 12.29 10.04L12.29 10.04L12.29 10.04Q12.24 10.30 12.10 10.84L12.10 10.84L12.10 10.84Q11.97 11.28 11.55 11.28ZM17.01 12.45L17.01 12.45L17.01 12.45Q17.01 10.70 18.09 9.34L18.09 9.34L18.09 9.34Q19.24 7.87 20.94 7.87L20.94 7.87L20.94 7.87Q22.33 7.87 23.02 8.85L23.02 8.85L23.02 8.85Q23.62 9.70 23.62 11.13L23.62 11.13L23.62 11.13Q23.62 12.68 22.68 14L22.68 14L22.68 14Q21.64 15.46 20.10 15.46L20.10 15.46L20.10 15.46Q18.96 15.46 17.98 14.52L17.98 14.52L17.98 14.52Q17.01 13.58 17.01 12.45ZM18.96 11.28L18.96 11.28L18.96 11.28Q18.96 12.46 20.52 13.76L20.52 13.76L20.71 13.76L20.71 13.76Q20.85 13.78 20.87 13.78L20.87 13.78L20.87 13.78Q21.36 13.78 21.60 13.26L21.60 13.26L21.60 13.26Q21.78 12.87 21.78 12.31L21.78 12.31L21.78 12.31Q21.78 11.34 21.48 10.58L21.48 10.58L21.48 10.58Q21.04 9.53 20.23 9.53L20.23 9.53L20.23 9.53Q19.88 9.53 19.70 10.04L19.70 10.04L19.70 10.04Q19.64 10.30 19.50 10.84L19.50 10.84L19.50 10.84Q19.38 11.28 18.96 11.28ZM25.10 12.64L25.10 12.64L25.10 11.73L25.10 11.73Q25.10 11.70 25.09 11.12L25.09 11.12L25.09 11.12Q25.09 10.96 25.09 10.82L25.09 10.82L25.09 10.82Q24.79 10.39 24.79 10.12L24.79 10.12L24.79 10.12Q24.79 9.72 26.14 9.03L26.14 9.03L26.14 9.03Q27.41 8.39 27.93 8.39L27.93 8.39L27.93 8.39Q27.93 8.55 27.79 8.83L27.79 8.83L27.79 8.83Q27.64 9.16 27.61 9.28L27.61 9.28L27.65 9.28L27.65 9.28Q27.66 9.30 27.68 9.30L27.68 9.30L27.68 9.30Q27.20 9.30 28.29 8.87L28.29 8.87L28.29 8.87Q29.37 8.44 29.64 8.44L29.64 8.44L29.64 8.44Q30.59 8.44 31.12 9.41L31.12 9.41L31.12 9.41Q31.54 10.18 31.54 11.19L31.54 11.19L31.54 11.19Q31.54 12.85 30.53 14.10L30.53 14.10L30.53 14.10Q29.44 15.44 27.82 15.44L27.82 15.44L27.75 15.44L27.75 15.44Q27.51 15.40 27.33 15.30L27.33 15.30L27.33 15.30Q27.17 15.97 26.92 17.04L26.92 17.04L26.92 17.04Q26.71 17.89 25.93 18.52L25.93 18.52L25.93 18.52Q24.88 19.36 24.67 19.36L24.67 19.36L24.49 19.36L24.49 19.36Q24.49 18.73 24.67 17.74L24.67 17.74L24.67 17.74Q24.92 16.34 24.95 16.14L24.95 16.14L24.95 16.14Q25.10 14.83 25.10 12.64ZM28.17 10.53L28.17 10.53L28.17 10.53Q27.87 10.53 27.62 10.67L27.62 10.67L27.62 10.67Q27.33 10.84 27.33 11.10L27.33 11.10L27.33 13.06L27.33 13.06Q27.33 13.51 27.85 13.86L27.85 13.86L27.85 13.86Q28.32 14.18 28.80 14.18L28.80 14.18L28.80 14.18Q29.16 14.18 29.40 13.47L29.40 13.47L29.40 13.47Q29.57 12.96 29.57 12.50L29.57 12.50L29.57 12.50Q29.57 11.80 29.22 11.21L29.22 11.21L29.22 11.21Q28.83 10.53 28.17 10.53ZM32.96 14.32L32.96 10.99L32.96 10.99Q32.77 10.99 32.42 11.14L32.42 11.14L32.42 11.14Q32.06 11.28 31.88 11.28L31.88 11.28L31.88 11.28Q31.88 10.40 33.36 9.45L33.36 9.45L33.36 9.45Q34.73 8.57 35.64 8.57L35.64 8.57L35.64 8.57Q35.64 8.86 35.20 9.84L35.20 9.84L35.20 10.36L35.20 10.36Q35.20 10.37 35.18 10.72L35.18 10.72L35.18 10.72Q35.18 10.81 35.18 10.89L35.18 10.89L35.18 10.89Q35.18 11.76 35.20 11.94L35.20 11.94L35.20 11.94Q35.24 12.50 35.34 12.50L35.34 12.50L35.62 12.50L37.16 11.52L37.16 11.52Q37.18 11.51 37.23 11.51L37.23 11.51L37.23 11.51Q37.45 11.51 37.45 12.17L37.45 12.17L37.45 12.17Q37.45 12.98 36.13 14.22L36.13 14.22L36.13 14.22Q34.80 15.46 33.98 15.46L33.98 15.46L33.98 15.46Q32.96 15.46 32.96 14.32L32.96 14.32ZM33.95 6.48L33.95 6.48L33.95 6.20L33.95 6.20Q33.95 6.10 33.94 6.01L33.94 6.01L33.94 5.92L33.94 5.92Q33.91 5.88 33.67 5.74L33.67 5.74L33.67 5.74Q33.50 5.64 33.50 5.50L33.50 5.50L33.50 5.50Q33.50 5.53 33.52 5.36L33.52 5.36L34.61 4.59L34.61 4.59Q35.39 4.09 35.91 4.09L35.91 4.09L35.91 4.09Q36.18 4.09 36.18 4.45L36.18 4.45L36.18 4.45Q36.18 5.74 34.50 7.60L34.50 7.60L34.50 7.60Q33.74 8.44 33.66 8.44L33.66 8.44L33.33 8.44L33.33 8.44Q33.33 8.15 33.64 7.48L33.64 7.48L33.64 7.48Q33.95 6.82 33.95 6.48ZM43.29 9.60L43.29 9.60L43.22 9.60L43.22 9.60Q43.04 9.60 42.69 9.68L42.69 9.68L42.69 9.68Q42.35 9.76 42.17 9.76L42.17 9.76L42.17 9.76Q41.92 9.76 41.43 9.67L41.43 9.67L41.43 9.67Q40.95 9.59 40.70 9.59L40.70 9.59L40.70 9.59Q39.28 9.59 38.60 10.86L38.60 10.86L38.60 10.86Q38.36 11.31 38.25 11.31L38.25 11.31L38.25 11.31Q38.14 11.31 37.91 10.85L37.91 10.85L37.91 10.85Q37.67 10.39 37.67 10.23L37.67 10.23L37.67 10.23Q37.67 10.21 37.69 10.16L37.69 10.16L38.49 8.72L38.49 8.72Q38.64 8.43 39.03 8.34L39.03 8.34L39.03 8.34Q40.42 8.04 40.77 7.92L40.77 7.92L40.77 7.92Q42.46 7.97 44.69 7.92L44.69 7.92L44.69 7.92Q44.97 7.92 45.53 7.77L45.53 7.77L45.53 7.77Q46.09 7.62 46.38 7.62L46.38 7.62L46.38 7.62Q46.38 8.60 44.07 10.77L44.07 10.77L44.07 10.77Q43.48 11.31 40.77 13.80L40.77 13.80L40.91 13.82L40.91 13.82Q41.17 13.82 41.72 13.59L41.72 13.59L41.72 13.59Q42.27 13.36 42.55 13.36L42.55 13.36L42.55 13.36Q43.12 13.36 44.25 13.59L44.25 13.59L44.25 13.59Q45.37 13.82 45.95 13.82L45.95 13.82L45.95 13.82Q46.49 13.82 47.70 13.31L47.70 13.31L47.70 13.31Q48.90 12.80 49.31 12.80L49.31 12.80L49.31 13.10L49.31 13.10Q49.31 13.19 48.19 14.22L48.19 14.22L48.19 14.22Q46.91 15.40 45.95 15.62L45.95 15.62L45.95 15.62Q45.85 15.62 45.75 15.62L45.75 15.62L45.75 15.62Q45.35 15.64 45.32 15.64L45.32 15.64L44.69 15.64L44.69 15.64Q44.07 15.64 42.87 15.41L42.87 15.41L42.87 15.41Q41.66 15.19 41.05 15.19L41.05 15.19L41.05 15.19Q40.54 15.19 39.61 15.63L39.61 15.63L39.61 15.63Q38.68 16.07 38.49 16.07L38.49 16.07L38.49 16.07Q38.49 14.14 40.24 12.45L40.24 12.45L40.24 12.45Q41.09 11.66 43.29 9.60Z"></path></g><defs data-v-fde0c5aa=""><!----></defs><g data-v-fde0c5aa="" id="87e97554-fce8-449e-8cdd-9b637ab54f5e" stroke="none" fill="#422F75" transform="matrix(1.786466934104907,0,0,1.786466934104907,60.73560839365807,26.984798137297634)"><path d="M25.45 35.378a9.036 9.036 0 0 0-7.559 4.081c.312-.162.66-.262 1.035-.262a2.266 2.266 0 0 1 0 4.53 2.258 2.258 0 0 1-2.189-1.715 9.047 9.047 0 0 0-.336 2.416 9.05 9.05 0 1 0 9.049-9.05zM83.196 42.012a2.26 2.26 0 0 1-4.453-.551 2.266 2.266 0 0 1 2.265-2.265c.375 0 .723.1 1.033.261a9.036 9.036 0 0 0-7.558-4.08 9.05 9.05 0 1 0 9.049 9.049c0-.837-.123-1.644-.336-2.414zM83.196 42.012c.045-.177.075-.359.075-.55"></path><path d="M49.967 82.666c-5.319 0-8.09-5.439-13.048-5.22C12.197 78.545.934 65.38.934 47.642c0-13.047 12.636-22.937 12.636-22.937S3.956 11.52 9.449 7.674c3.685-2.524 16.402 8.09 22.8 8.516 8.404.558 10.902-1.373 17.718-1.373M24.9 32.34c-6.978 0-12.635 5.657-12.635 12.636 0 6.979 5.657 12.635 12.635 12.635 6.979 0 12.637-5.656 12.637-12.635-10.17-10.667-6.524-7.085-12.637-12.636zm25.067-17.524c6.816 0 9.314 1.931 17.718 1.373 6.398-.426 19.114-11.04 22.801-8.516 5.494 3.846-4.121 17.031-4.121 17.031S99 34.594 99 47.642c0 17.738-11.262 30.903-35.984 29.805-4.959-.22-7.73 5.22-13.049 5.22m12.429-37.691c0 6.979 5.657 12.635 12.637 12.635 6.979 0 12.635-5.656 12.635-12.635S82.012 32.34 75.033 32.34c-6.112 5.551-2.467 1.969-12.637 12.636zm-6.203 3.994c-2.892 2.891-3.939 3.988-6.227 3.988-2.287 0-3.335-1.097-6.227-3.988-.96-.96-1.919 6.608-.229 10.894.468 1.19 6.455 8.699 6.455 8.699s5.986-7.509 6.456-8.699c1.691-4.286.733-11.854-.228-10.894z"></path></g><!----></svg>