<?xml version="1.0" encoding="utf-8"?>
<!-- Generator: Adobe Illustrator 20.1.0, SVG Export Plug-In . SVG Version: 6.00 Build 0)  -->
<svg version="1.1" id="圖層_1" xmlns="http://www.w3.org/2000/svg" xmlns:xlink="http://www.w3.org/1999/xlink" x="0px" y="0px"
	 viewBox="0 0 227 150" style="enable-background:new 0 0 227 150;" xml:space="preserve">
<style type="text/css">
	.st0{fill:#D99A42;}
	.st1{fill:#46271E;}
	.st2{fill:#45271E;}
	.st3{fill:#47281F;}
	.st4{fill:#47291F;}
	.st5{fill:#482A21;}
	.st6{fill:#4A2D24;}
	.st7{fill:#492B21;}
	.st8{fill:#4B2D24;}
	.st9{fill:#4D3027;}
	.st10{fill:#4B2E25;}
	.st11{fill:#422119;}
	.st12{fill:#EDEAE9;}
	.st13{fill:#D79539;}
	.st14{fill:#D69439;}
	.st15{fill:#C8CCC6;}
	.st16{fill:#D59338;}
	.st17{fill:#412118;}
	.st18{fill:#E5DEC5;}
</style>
<g>
	<path class="st0" d="M89.4,8.3c3.3,0.3,6.2-0.6,8.9-2.4c5.1-3.5,9.2-3.5,14.2,0c2.8,1.9,5.8,2.7,9.1,2.4c6-0.5,9.6,1.6,12.2,7.1
		c1.4,3,3.7,5.3,6.7,6.7c5.4,2.5,7.6,6.4,7,12.2c-0.3,3.3,0.5,6.3,2.4,9c3.4,4.8,3.5,9.3,0,14.1c-2,2.7-2.8,5.8-2.4,9.1
		c0.6,5.8-1.7,9.7-7,12.1c-3.1,1.4-5.4,3.7-6.8,6.7c-2.6,5.4-6.2,7.5-12.1,7c-3.4-0.3-6.5,0.5-9.3,2.5c-5,3.4-9.1,3.4-14.1,0
		c-2.8-1.9-5.9-2.7-9.3-2.5c-5.9,0.5-9.5-1.6-12.1-7c-1.5-3.1-3.7-5.3-6.8-6.7c-5.3-2.4-7.5-6.4-7-12.3c0.3-3.2-0.5-6.1-2.3-8.8
		c-3.6-5.1-3.6-9.4,0-14.4c1.9-2.7,2.6-5.7,2.3-8.9c-0.6-5.9,1.6-9.8,7-12.2c3-1.4,5.3-3.4,6.6-6.4C79.1,10.1,83.8,7.6,89.4,8.3z
		 M137.3,22.5c-0.1-0.1-0.2-0.2-0.3-0.3c-0.1,0-0.1,0-0.2,0c-0.2-0.2-0.4-0.3-0.6-0.5l0,0c-0.2-0.1-0.4-0.2-0.6-0.3l0,0
		c0-0.2,0.1-0.4,0-0.5c-1.3-1.9-2.7-3.7-3.8-5.7c-2.1-3.7-5.1-5.6-9.2-5.2c-4.6,0.5-8.5-0.7-12.2-3.3c-1.2-0.8-2.7-1.3-4.2-1.5
		c-2.6-0.4-4.9,0.6-7,2.1c-3.2,2.3-6.8,3.2-10.7,2.7c-4.4-0.5-7.9,1.4-9.8,5.5c-1,2.3-2.5,4.2-4.2,5.9c-0.6,0.5-1.1,0.9-1.7,1.4
		c-1.3,0.6-2.7,1.1-3.9,1.9c-3.1,2-4.4,4.8-4.1,8.5c0.4,4.1-0.4,7.9-2.9,11.4c-2.9,4-2.8,7.6,0,11.7c1.8,2.6,2.9,5.5,2.9,8.7
		c0,1.4-0.2,2.8-0.1,4.2c0.3,3.9,2.5,6.4,6,7.9c3.4,1.5,6,4,7.6,7.5c2.3,4.9,5.4,6.6,10.8,6.1c3.5-0.3,6.9,0.5,9.8,2.6
		c4.5,3.2,8,3.2,12.5,0c3-2.1,6.4-3,10.1-2.6c4.9,0.5,8.3-1.3,10.5-5.8c0.5-1,1-1.9,1.6-2.8c1.8-2.6,4.4-4.1,7.1-5.5
		c3.6-1.8,5.3-5,4.9-8.9c-0.4-4.1,0.4-7.9,2.8-11.3c3-4.2,2.9-7.7,0-11.9c-1.8-2.5-2.8-5.3-2.8-8.4c0-1.4,0.2-2.9,0.1-4.3
		c-0.4-5-3.8-7.3-8.1-8.8l0,0C137.7,22.7,137.5,22.6,137.3,22.5L137.3,22.5z"/>
	<path class="st1" d="M79.8,111.6c0.2,1.4,0.3,2.8,0.5,4.3c0.3-0.2,0.5-0.4,0.7-0.6c0,0.4,0.1,0.8,0,1.1c-1.1,3.5-2.4,6.8-5.6,9.1
		c-2.4,1.7-7.7,0.8-9.1-2.3c-0.2-0.4-0.4-0.8-0.6-1.2c-0.8,0.3-1.5,0.6-2.4,0.9c0.5,0.2,0.8,0.3,1.1,0.4c0,0.1,0,0.2,0,0.3
		c-0.9,0.2-1.7,0.4-2.6,0.7c-2.9,0.8-5.8,1.6-8.6,2.6c-1.5,0.5-2.5,0.6-3.2-1c1.1-0.5,0.8-1.1,0.4-2.2c-0.4-0.9,0-2.1,0.1-3.2
		c0.1-1,0.1-2,0.3-3c0.1-0.6-0.4-1.7,0.9-1.8c0.1,0,0.1-0.5,0.1-0.8c0.2-1.7,0.3-3.4,0.4-5.2c0-0.1,0-0.3,0-0.4
		c0.3-0.5,0.6-1,0.9-1.5c0.3,0.4,0.7,0.8,1.1,1.3c0.2,0,0.5-0.2,1-0.3c-0.4,4.3-0.8,8.6-1.1,12.9c0.8-0.1,1.5-0.2,2.2-0.3
		c0,0.1,0,0.1,0,0.2c-0.2,0.1-0.5,0.1-0.7,0.2c0,0.1,0,0.1,0,0.2c3-0.3,6.1-0.6,9.2-0.9c-0.3-2-0.4-4.1,1-6c1.3-1.6,2.8-3,4.1-4.5
		c0.2-0.2,0.4-0.3,0.5-0.5c0.7-1.9,2.4-2.3,4-2.2c1.6,0.1,3.3,0.7,4.8,1.3c0.5,0.2,0.7,1.3,1,2c-0.1,0-0.3,0-0.4,0
		c-0.1,0-0.2-0.1-0.2-0.1C79.8,111.4,79.8,111.5,79.8,111.6z M77.7,113.7c0-1.7-0.4-2.2-2.1-2.2c-0.9,0-1.6,0.2-2.3,1
		c-0.8,1-2.2,1.5-2.9,2.6c-0.9,1.4-1.4,3.1-1.9,4.8c-0.4,1.4,0.5,2.6,1.6,3.1c0.6,0.3,1.8,0.1,2.4-0.3
		C75.4,120.3,77.4,117.4,77.7,113.7z"/>
	<path class="st2" d="M136.5,121.6c-0.1,0-0.4-0.1-0.4,0c-0.5,0.5-0.9,1.3-1.5,1.6c-3,1.4-6,2.7-9,4c-0.3,0.1-0.7,0.2-0.9,0.1
		c-1.1-0.7-1.8,0-2.5,0.7c-0.3-0.4-0.5-0.7-0.7-0.9c-1.9-3.8,0.3-7.4,0.8-11.2c0.4-2.5,0.7-5.1,1-7.9c0.7-0.3,1.5-0.7,2.8-0.3
		c1.1,0.4,2.5-0.1,3.7-0.2c0.2,0,0.4-0.1,0.5,0c1.9,1.3,4.1,2.4,5,4.8c0,0.1,0,0.3,0,0.1c-1.2,1.1-2.3,2.1-3.4,3.1
		c0,0.1,0,0.2,0,0.3c0.7-0.2,1.5-0.5,2.5-0.8c-0.5,0.6-0.9,1-1,1.2c1,1.5,1.9,2.8,2.8,4.2c-0.3,0.1-0.4,0.2-0.7,0.3
		C135.8,121.1,136.1,121.3,136.5,121.6L136.5,121.6z M125.4,118.6c-0.2,1.5-0.5,2.9-0.7,4.5c3.4-0.4,6-1.9,8.9-3.6
		C130.7,117.8,128.1,118.4,125.4,118.6z M133.1,112.3c0-0.2,0-0.5,0-0.7c-1.3-0.3-2.6-0.9-3.9-1c-2.4-0.2-3.3,1.1-2.6,3.5
		C128.8,113.9,131.3,114.2,133.1,112.3z"/>
	<path class="st1" d="M136.4,121.6c0.8-1.8,1.6-3.5,2.4-5.3c0.2-0.5,0.5-1.1,0.7-1.7c0.2,0.2,0.4,0.4,1,0.9c-0.8-2-0.5-3.4,0.9-4.5
		c-0.3-0.5,0.4-3.6,0.8-3.5c1.4,0.4,2.7-1.3,4.2-0.1c0.3,0.3,0.8,0.2,1.3,0.3c0.6,2.6,1.2,5.3,1.8,8c0.5,0,0.9,0.1,1.7,0.2
		c-0.7,0.2-1,0.3-1.3,0.4c0,0.1,0,0.2,0,0.3c0.8,0.2,1.5,0.3,2.3,0.5c0,0.1,0.1,0.2,0.1,0.2c-0.7,0.3-1.4,0.6-2,0.8
		c0,3.8,0,7.5,0,11c-0.5,0.3-1,0.6-1.6,0.9c-0.4-1.2-0.8-2.5-1.2-3.9c-0.1,0.4-0.2,0.6-0.3,0.9c-0.1,0-0.1,0-0.2,0
		c0-1.8,0-3.6,0-5.3c-0.2,0.1-0.4,0.1-0.5,0.2c-0.2-0.3-0.5-0.6-0.5-0.9c0.1-0.6,0.4-1.1,0.7-2c-1.7,0.4-3.2,0.7-4.6,1
		c0,0.1,0,0.1,0,0.2c0.9,0.1,1.9,0.1,2.8,0.2c0,0.1,0.1,0.1,0.1,0.2c-0.5,0.2-1,0.4-1.5,0.4c-2,0.3-3.5,1.1-3.8,3.4
		c-0.1,0.8-0.7,1.5-1.1,2.4c-0.6-0.1-1.1-0.2-1.6-0.4c0.1-0.5,0.2-1,0.2-1.4c-0.1,0-0.2-0.1-0.3-0.1c-0.2,0.5-0.4,1.1-0.7,1.6
		C135.9,124.8,135.7,123.2,136.4,121.6L136.4,121.6z M144.6,112.1c-0.2,0.4-0.3,0.6-0.4,0.8c-0.5,1.4-1,2.8-1.6,4.2
		c1.9,0.2,3.1-0.5,2.9-1.7C145.3,114.4,144.9,113.4,144.6,112.1z"/>
	<path class="st3" d="M97.5,111.4c-0.7,0.3-0.7,1.8,0.1,4.7c0.1-0.3,0.2-0.5,0.4-0.8c0.1,0.2,0.2,0.3,0.2,0.4
		c-0.6,1.7-1.2,3.4-1.7,5.1c-0.6,2.1-2.1,3.3-3.7,4.5c-2.4,1.7-6.1,1.7-8.1-0.5c-2.7-2.8-3.9-6.2-1.2-9.9c1.1-1.5,2.6-2.8,3.9-4.2
		c0.3-0.3,0.6-0.7,0.9-1c-0.2-0.1-0.4-0.2-0.8-0.4c1.8-1.2,3.7-1.5,5.7-1.2C95.2,108.4,97,108.9,97.5,111.4z M94.7,114.3
		c0-2.3-0.3-2.7-1.9-2.8c-0.9-0.1-1.8,0.1-2.5,0.9c-0.8,0.9-2.2,1.4-2.8,2.4c-0.9,1.5-1.5,3.2-2,4.9c-0.4,1.4,0.4,2.6,1.6,3.2
		c0.6,0.3,1.9,0.1,2.4-0.3C92.5,120.3,94.4,117.4,94.7,114.3z"/>
	<path class="st4" d="M101,128.7c-0.6-0.3-1.2-0.6-2.2-1.1c0.3-3.1,0.5-6.3,0.9-9.5c0.1-0.9,0.7-1.7,1-2.6c0.2-0.5,0.4-1-0.5-1.4
		c-0.6-0.2-1-1-1.4-1.6c-0.7-1.2-0.2-2.2,1.1-2.8c0.6-0.3,1.2-0.7,1.9-1c-0.4-0.6-0.7-1-1.1-1.7c2.6,0.6,2.6,0.6,2.8,1.2
		c0.2-0.1,0.4-0.4,0.6-0.4c1.8,0.6,3.7,0.7,5.6,0.6c1.5-0.1,2.6,1.2,2.5,2.7c0,0.7,0.1,1.5-0.2,2c-2.2,2.7-3.8,6.1-7.6,7
		c-1.5,0.4-2.1,1.3-1.9,2.8C102.7,125,102.4,126.9,101,128.7z M109,112.4c-0.1-0.1-0.2-0.3-0.2-0.4c-5,0.1-5.6,0.7-5,4.4
		C105.6,115,107.3,113.7,109,112.4z"/>
	<path class="st5" d="M155.8,108.3c0.6,0,1.3-0.2,1.9-0.1c1.3,0.1,2,1.1,1.6,2.5c-1.4,4.7-1.9,9.5-1.9,14.3c0,1-0.8,2-1.4,3
		c-0.1,0.2-0.9,0-1.2-0.2c-0.2-0.1-0.4-0.5-0.5-0.8c-0.2-0.6-0.3-1.2-0.5-1.8c-0.1-0.2-0.1-0.4-0.1-0.6c0.2-2.4,0.3-4.7,0.6-7
		c0.4-2.5,1-4.9,1.4-7.4C155.8,109.6,155.8,109,155.8,108.3z"/>
	<path class="st6" d="M154.8,145.2c0.9-0.2,1.8-0.3,2.8-0.5c-0.4,1.2-1,2-2.3,2c-1.2-0.1-2.4,0-3.5,0c-0.3,0-0.7-0.3-1-0.5
		c0.2-0.3,0.4-0.7,0.7-0.9c1.2-0.7,2.5-1.2,3.7-1.9c0.3-0.2,0.4-0.7,0.7-1.1c-0.5,0-0.9-0.1-1.3,0c-0.5,0.2-0.8,0.7-1.3,0.9
		c-0.4,0.1-0.9-0.2-1.4-0.3c0.3-0.3,0.4-0.8,0.8-0.9c1.4-0.4,2.8-0.7,4.2-0.9c0.4,0,1.2,0.4,1.3,0.8c0.1,0.4-0.2,1.2-0.5,1.5
		c-0.8,0.6-1.9,1-2.8,1.5C154.8,145,154.8,145.1,154.8,145.2z"/>
	<path class="st7" d="M162.6,146.8c-0.3-0.2-1.3-0.4-1.4-1c-0.2-0.6,0-1.7,0.5-2.2c0.9-1,2-2,3.3-2.3c1-0.3,2.4,0.3,3.5,0.7
		c0.3,0.1,0.3,1.5,0,2C167.2,146.1,165.2,146.7,162.6,146.8z M162.6,145.2c1.7,0.5,3.9-0.4,4.4-1.8c0.3-0.8-0.1-1.3-0.8-1
		C164.7,143,163.4,143.6,162.6,145.2z"/>
	<path class="st8" d="M181.7,144.5c-0.6,0.2-1.1,0.5-1.7,0.5c-0.5,0-1.1-0.2-1.3-0.6c-0.2-0.4-0.1-1.2,0.2-1.5c1.3-1.5,3-2.1,5-1.9
		c1.2,0.1,1.5,0.9,1.2,2c-0.4,1.7-3.7,4.3-5.5,4.4c-0.1,0-0.2-0.1-0.5-0.3c1-0.8,1.9-1.5,2.8-2.3c0.1-0.1,0.2-0.2,0.3-0.3
		c0.3-0.6,0.6-1.1,0.8-1.8c0-0.1-0.6-0.7-0.7-0.6c-0.7,0.4-1.3,0.8-1.9,1.3c0.1,0.1,0.2,0.3,0.2,0.4c0.5,0,1,0,1.7,0
		c-0.2,0.3-0.3,0.5-0.4,0.7C181.7,144.4,181.7,144.5,181.7,144.5z"/>
	<path class="st8" d="M129.9,144.2c-0.7,0.6-1.4,1.2-2.2,1.6c-1.4,0.8-1.7,0.6-2.4-0.9c-0.8,0.5-1.5,1-2.3,1.4
		c-0.3,0.2-0.8,0.2-1.1,0.1c-0.2-0.2-0.3-0.7-0.3-1.1c0.2-2,1-2.9,2.7-2.7c-0.1,0.5-0.1,0.9-0.2,1.6c0.5-0.3,0.8-0.5,1.1-0.7
		c1.5-1,1.8-0.9,2,1.2c0.6-0.3,1.2-0.5,1.6-0.9C129.4,143.4,129.8,143.5,129.9,144.2L129.9,144.2z"/>
	<path class="st9" d="M141.5,144.9c0.9-0.5,1.7-1.1,2.9-1.8c-0.2,0.6-0.2,1-0.4,1.2c-1.4,1.5-3.1,2.6-5.2,2.4c-0.6,0-1.3-0.5-1.6-1
		c-0.2-0.4,0.1-1.4,0.4-1.7c0.9-0.7,1.9-1.3,3-1.7c0.4-0.2,1,0.2,1.5,0.3c-0.2,0.5-0.4,1-0.6,1.5c-0.1,0.2-0.3,0.3-0.5,0.4
		c-0.4,0.2-0.7,0.4-1.1,0.6c0,0.1,0.1,0.2,0.1,0.3C140.6,145.2,141.1,145.1,141.5,144.9z"/>
	<path class="st10" d="M129.9,144.2c0.2-0.1,0.5-0.2,0.7-0.3c1.1-0.5,2.2-1.1,3.4-1.6c0.2-0.1,0.6,0.3,0.9,0.4
		c-0.2,0.3-0.4,0.7-0.7,0.9c-0.2,0.1-0.6-0.1-0.9,0.1c-0.4,0.2-0.7,0.5-1,0.8c0.4,0.2,0.8,0.7,1.1,0.7c0.6-0.1,1.2-0.5,1.8-0.8
		c0.5-0.3,1-0.7,1.8-1.2c-0.1,0.5,0,0.8-0.1,1c-1.2,1.5-2.7,2.5-4.7,2.6c-1.5,0-2.1-0.6-2-2.2C130.2,144.4,130,144.3,129.9,144.2
		C129.9,144.2,129.9,144.2,129.9,144.2z"/>
	<path class="st9" d="M108.9,145c-0.4-0.2-0.7-0.4-0.9-0.6c0.2-0.3,0.3-0.6,0.5-0.7c0.8-0.7,1.5-1.3,2.4-2c0.6,1.2,1.1,2.1,1.6,3
		c0.6-0.4,1.2-0.8,1.9-1.2c0,1.4-1.7,2.9-3.3,3.2c-0.4,0.1-0.8,0.1-1.2,0C108.6,146.6,108.3,146.1,108.9,145z M109.7,143.8
		c-0.4,0.4-0.7,0.8-1.2,1.3c0.7-0.1,1.2-0.1,1.9-0.2C110.2,144.5,110,144.2,109.7,143.8z"/>
	<path class="st9" d="M117.1,145c1.8,0.5,2.5-1.4,3.9-1.6c-0.1,1.7-2.9,3.7-4.4,3.3c-1-0.3-1.5-1-1.3-2.1c0.1-1,1.5-2.4,2.2-2.2
		c0.3,0.1,0.6,0.7,0.6,0.9C117.9,143.8,117.5,144.3,117.1,145z"/>
	<path class="st6" d="M172,143.4c0.3-1.3,1.8-2.2,3.6-2.1c-0.3,2-1.2,3.8-2.3,5.4c-0.2,0.3-1,0.2-1.8,0.2c0.6-1.3,1-2.4,1.5-3.5
		C172.6,143.4,172.3,143.4,172,143.4z"/>
	<path class="st11" d="M136.8,22.2c0.1,0.1,0.1,0.1,0.2,0c0.1,0.1,0.2,0.2,0.3,0.3l0,0c0.2,0.1,0.4,0.2,0.5,0.3l0,0
		c0.3,0.5,0.7,1,1,1.5c0.6,1.6,1.6,3.1,1.7,4.8c0.3,3.9-1.5,6.9-5.2,8.7c3.5,6.1,4.6,12.7,4.8,19.7c0,2,0.2,4.1,1.3,5.9
		c0.6,0.9-0.2,2-1.3,2c-1.1-0.1-2.3-0.4-3.2-0.6c-0.8,3.9-1.6,7.9-2.4,11.8c-0.1,0.6-0.6,1.3-1.1,1.5c-0.4,0.2-1.1-0.3-1.6-0.6
		c-0.3-0.1-0.4-0.4-0.6-0.7c-0.6,0.7-1.1,1.4-1.7,2c-4.7,5-10.7,6.9-17.3,7.5c-1.4,0.1-1.9-0.6-1.9-1.9c-3.3,1.2-6.5,1.2-9.6,0
		c-0.3,1.6-0.6,2-2,1.9c-5.6-0.5-10.9-2.1-15.3-5.7c-1.4-1.1-2.7-2.4-4-3.6c-0.1,0.1-0.3,0.5-0.5,0.6c-0.5,0.2-1.1,0.5-1.6,0.3
		c-0.4-0.1-0.8-0.7-0.9-1.2c-0.9-4.1-1.6-8.1-2.4-12.2c-0.6,0.2-1.4,0.6-2.1,0.7c-0.7,0-1.7-0.1-2.2-0.6c-0.3-0.3,0.1-1.3,0.2-2
		c0.1-0.5,0.4-1,0.5-1.5c0.2-1.9,0.5-3.9,0.5-5.8c0.1-3.8,0.6-7.5,1.9-11.1c0.8-2.2,1.7-4.3,2.6-6.5c-4.2-2.2-6-6.1-4.6-10.7
		c0.5-1.5,1.6-2.8,2.4-4.2c0.6-0.5,1.1-0.9,1.7-1.4c1.4-0.3,2.8-0.9,4.2-0.9c3.7-0.1,6.4,1.7,8.1,4.8c12.3-6.9,24.6-6.9,36.8,0
		c0.5-0.7,1-1.5,1.7-2.1c3-2.9,6.4-3.5,10.3-1.8l0,0c0.2,0.1,0.4,0.2,0.6,0.3l0,0C136.4,21.9,136.6,22,136.8,22.2z M103.8,23.3
		c-0.9,0.1-1.6,0.2-2.3,0.3c-9.8,1.2-17.3,6.2-22.7,14.4c-3.2,5-4.7,10.6-5.1,16.5c-0.1,2,0,4.1,0,6.1c0.4-0.1,0.9-0.3,1.4-0.4
		c1.2-0.1,1.9,0.8,1.9,2.3c0,3.5,0.3,6.9,1.4,10.2c1.4-0.7,2.1-0.1,2.9,1.1c1.2,1.7,2.6,3.4,4.1,4.8c3,2.7,9.5,4.8,12.8,4.6
		c-0.4-0.8-1.1-1.6-1.3-2.5c-0.3-0.9-0.7-1.2-1.5-1.5c-2.1-0.9-3.9-2.2-4.7-4.5c-0.8-2.4-2.3-4.4-4-6.2c-1.4-1.5-2.6-3.2-3.4-5
		c-1.5-3.4-1.6-7-0.4-10.6c0.3-0.9,0.8-1.6,1.9-1.3c1.1,0.3,1.3,1.1,1,2.1c-0.1,0.4-0.2,0.8-0.3,1.2c-1.3,5.7,1.4,10.4,5.9,13.8
		c0.4-0.9,1.2-1.7,1.2-2.5c-0.1-1.9,0.6-3.5,2.3-4.2c1-0.4,2.2-0.8,3.3-0.9c2.7-0.3,5.4-0.5,8.1-0.5c3.1,0,6.3,0.1,9.3,1.3
		c1.7,0.7,2.9,2.1,2.5,3.7c-0.3,1.4,0.4,2,1.3,2.7c0.6-0.6,1.1-1.3,1.7-1.8c4-3.7,5.3-8.1,3.7-13.3c-0.3-1-0.1-1.9,1-2.2
		c1.1-0.3,1.6,0.4,1.9,1.3c1,3.1,1,6.1,0.1,9.2c-0.9,3.3-3.1,5.6-5.3,8c-1,1.1-1.8,2.4-2.2,3.8c-0.8,3.1-2.7,5.1-5.6,6.1
		c-0.3,0.1-0.7,0.4-0.9,0.7c-0.5,1-1,2.1-1.4,3.3c1.5-0.3,3.1-0.5,4.7-0.9c5.1-1.4,9.6-3.7,12.2-8.6c0.7-1.3,1.5-1.8,3-1.1
		c0.2-0.8,0.5-1.6,0.6-2.3c0.3-2.7,0.6-5.4,0.8-8.1c0.1-1.8,1.3-2.6,3-1.8c0.2,0.1,0.4,0.1,0.7,0.2c-0.3-3.5-0.3-7-0.9-10.3
		c-2.4-13.3-9.9-22.2-22.9-26c-2.1-0.6-4.3-0.8-6.5-1.2c0,1.3,0,2.3,0,3.3c0.5,0.1,1,0.2,1.5,0.3c3.4,0.6,6.4,1.9,8.9,4.3
		c0.8,0.7,1.1,1.5,0.3,2.4c-0.8,0.9-1.6,0.6-2.4-0.1c-2.4-2.1-5.1-3.4-8.4-3.8c0,0.4,0,0.8-0.1,1.1c-0.2,1.3,0.2,1.9,1.7,2.3
		c1.8,0.5,3.4,1.6,5,2.6c0.9,0.5,1.1,1.5,0.5,2.4c-0.7,0.9-1.6,0.7-2.4,0.1c-0.3-0.2-0.5-0.5-0.7-0.6c-1.2-0.6-2.5-1.2-4-2
		c0,1.5,0,2.5,0,3.6c0,1.1-0.1,2-1.5,2.1c-1.2,0.1-1.6-0.5-1.7-2.1c0-1.1,0-2.1,0-3.3c-2.1,0.2-3.6,1-4.9,2.2
		c-0.7,0.7-1.6,0.9-2.4,0c-0.8-0.9-0.3-1.7,0.4-2.3c1.7-1.5,3.6-2.5,5.8-2.8c0.8-0.1,1.2-0.5,1.1-1.3c-0.1-0.6,0-1.2,0-1.9
		c-3.4,0.3-6.1,1.5-8.4,3.6c-1.2,1-2,1.1-2.7,0.2c-0.8-1.1-0.1-1.7,0.7-2.4c2.2-2,4.6-3.3,7.5-4c1-0.2,1.9-0.4,2.9-0.6
		C103.8,25.4,103.8,24.5,103.8,23.3z M115.2,65.6c-1.5-2.5-17.4-2.7-19.6-0.1c0.5,0.2,0.9,0.4,1.4,0.5c2.7,0.4,4.6,1.9,6,4.2
		c0.4,0.7,0.9,1.3,1.5,2c0.7,0.9,1.4,0.8,2,0c0.6-0.7,1.1-1.3,1.5-2.1c1.5-2.3,3.4-3.8,6.2-4.2C114.5,65.8,114.8,65.7,115.2,65.6z
		 M84.3,27c-0.8-1.8-2.4-3.1-4.6-3.4c-2.5-0.3-4.3,0.9-5.6,2.9c-1.8,2.9-0.8,6.7,2,8.1c0.4,0.2,1.1,0.1,1.3-0.2
		C79.7,32.1,81.9,29.6,84.3,27z M126.5,27c2.2,2.3,4.2,4.4,6.2,6.6c1.4,1.5,1.6,1.7,3.2,0.3c0.2-0.2,0.4-0.5,0.6-0.7
		c1.4-1.9,1.6-4,0.5-6.1c-1.1-2.2-2.8-3.5-5.4-3.5C129.1,23.7,127.5,25,126.5,27z M108.1,75c2.2,2.8,7.5,2,8.9-1.1
		c0.7-1.6,0.3-3.7-0.8-4.5c-1.3-0.9-3.2-0.6-4.6,0.8c-0.3,0.3-0.5,0.6-0.8,0.9C110,72.4,109,73.7,108.1,75z M102.7,75.1
		c-0.8-1.2-1.5-2.3-2.3-3.3c-0.5-0.7-1-1.3-1.5-1.9c-1.2-1.1-3.1-1.3-4.2-0.7c-1,0.6-1.5,2.4-1.1,3.9c0.5,1.9,1.8,2.9,3.6,3.3
		C99.4,77.1,101.2,76.6,102.7,75.1z M110.7,80.1c-2-1.1-3.7-2.1-5.3-3c-1.7,0.9-3.5,1.8-5.4,2.8c1,1.9,2.8,2.2,4.6,2.3
		C106.9,82.3,109.2,82.2,110.7,80.1z"/>
	<path class="st12" d="M181.8,144.5c0.1-0.2,0.2-0.4,0.4-0.7c-0.6,0-1.2,0-1.7,0c-0.1-0.1-0.2-0.3-0.2-0.4c0.6-0.4,1.3-0.9,1.9-1.3
		c0.1-0.1,0.7,0.5,0.7,0.6c-0.2,0.6-0.5,1.2-0.8,1.8C182,144.5,181.9,144.5,181.8,144.5z"/>
	<path class="st13" d="M103.8,23.3c0,1.2,0,2.1,0,3.1c-1,0.2-1.9,0.4-2.9,0.6c-2.9,0.6-5.3,2-7.5,4c-0.8,0.7-1.5,1.3-0.7,2.4
		c0.7,0.9,1.5,0.9,2.7-0.2c2.4-2,5.1-3.3,8.4-3.6c0,0.6,0,1.3,0,1.9c0.1,0.9-0.3,1.2-1.1,1.3c-2.2,0.3-4.1,1.3-5.8,2.8
		c-0.8,0.7-1.2,1.4-0.4,2.3c0.8,0.9,1.6,0.7,2.4,0c1.4-1.2,2.9-2,4.9-2.2c0,1.1,0,2.2,0,3.3c0,1.5,0.5,2.2,1.7,2.1
		c1.3-0.1,1.5-1,1.5-2.1c0-1,0-2.1,0-3.6c1.6,0.8,2.8,1.4,4,2c0.3,0.1,0.5,0.4,0.7,0.6c0.8,0.6,1.7,0.8,2.4-0.1
		c0.7-0.9,0.4-1.8-0.5-2.4c-1.6-1-3.3-2.1-5-2.6c-1.4-0.4-1.9-1-1.7-2.3c0.1-0.3,0.1-0.7,0.1-1.1c3.2,0.4,6,1.7,8.4,3.8
		c0.8,0.7,1.6,1,2.4,0.1c0.8-0.9,0.5-1.6-0.3-2.4c-2.5-2.4-5.5-3.8-8.9-4.3c-0.5-0.1-1-0.2-1.5-0.3c0-1,0-2,0-3.3
		c2.2,0.4,4.4,0.6,6.5,1.2c13.1,3.9,20.6,12.8,22.9,26c0.6,3.3,0.6,6.8,0.9,10.3c-0.4-0.1-0.6-0.1-0.7-0.2c-1.7-0.8-2.8,0-3,1.8
		c-0.2,2.7-0.5,5.4-0.8,8.1c-0.1,0.8-0.4,1.5-0.6,2.3c-1.5-0.7-2.3-0.2-3,1.1c-2.6,4.9-7.1,7.2-12.2,8.6c-1.5,0.4-3.2,0.6-4.7,0.9
		c0.5-1.1,0.9-2.2,1.4-3.3c0.2-0.3,0.5-0.6,0.9-0.7c2.9-1.1,4.8-3,5.6-6.1c0.4-1.4,1.2-2.7,2.2-3.8c2.2-2.4,4.4-4.7,5.3-8
		c0.9-3.1,0.9-6.2-0.1-9.2c-0.3-0.9-0.8-1.6-1.9-1.3c-1.1,0.3-1.3,1.1-1,2.2c1.6,5.2,0.3,9.7-3.7,13.3c-0.6,0.6-1.1,1.2-1.7,1.8
		c-0.8-0.7-1.6-1.3-1.3-2.7c0.4-1.6-0.8-3-2.5-3.7c-3-1.2-6.1-1.3-9.3-1.3c-2.7,0-5.4,0.2-8.1,0.5c-1.1,0.1-2.2,0.5-3.3,0.9
		c-1.7,0.7-2.4,2.3-2.3,4.2c0,0.8-0.7,1.7-1.2,2.5c-4.5-3.4-7.2-8.1-5.9-13.8c0.1-0.4,0.2-0.8,0.3-1.2c0.3-1,0.1-1.9-1-2.1
		c-1.1-0.3-1.6,0.4-1.9,1.3c-1.2,3.6-1.1,7.2,0.4,10.6c0.8,1.8,2,3.5,3.4,5c1.7,1.9,3.2,3.8,4,6.2c0.7,2.3,2.5,3.6,4.7,4.5
		c0.8,0.3,1.2,0.7,1.5,1.5c0.3,0.9,0.9,1.7,1.3,2.5c-3.3,0.2-9.8-1.9-12.8-4.6c-1.6-1.4-2.9-3.1-4.1-4.8c-0.8-1.2-1.5-1.8-2.9-1.1
		c-1.1-3.4-1.4-6.8-1.4-10.2c0-1.5-0.7-2.3-1.9-2.3c-0.5,0-1,0.3-1.4,0.4c0-2-0.1-4,0-6.1c0.3-5.9,1.8-11.5,5.1-16.5
		c5.3-8.2,12.8-13.2,22.7-14.4C102.2,23.5,102.9,23.4,103.8,23.3z M120.5,47.3c0-2.5-2.1-4.6-4.6-4.5c-2.5,0-4.5,2.1-4.5,4.7
		c0,2.4,2.1,4.5,4.5,4.5C118.5,51.9,120.5,49.8,120.5,47.3z M99.4,47.3c0-2.5-2.1-4.6-4.6-4.5c-2.4,0-4.5,2.1-4.5,4.5
		c0,2.5,2,4.6,4.6,4.6C97.3,51.9,99.4,49.8,99.4,47.3z"/>
	<path class="st14" d="M115.2,65.6c-0.4,0.1-0.7,0.3-1,0.3c-2.8,0.3-4.8,1.8-6.2,4.2c-0.5,0.7-1,1.4-1.5,2.1c-0.6,0.8-1.4,0.9-2,0
		c-0.5-0.6-1-1.3-1.5-2c-1.4-2.3-3.3-3.8-6-4.2c-0.4-0.1-0.9-0.3-1.4-0.5C97.8,62.9,113.7,63,115.2,65.6z"/>
	<path class="st14" d="M84.3,27c-2.4,2.6-4.6,5.1-6.8,7.5c-0.2,0.3-1,0.3-1.3,0.2c-2.9-1.4-3.8-5.2-2-8.1c1.3-2,3.1-3.2,5.6-2.9
		C81.9,23.8,83.5,25.2,84.3,27z"/>
	<path class="st14" d="M126.5,27c1-2,2.6-3.4,5.1-3.4c2.6-0.1,4.3,1.3,5.4,3.5c1.1,2.1,0.9,4.2-0.5,6.1c-0.2,0.3-0.4,0.5-0.6,0.7
		c-1.6,1.3-1.8,1.2-3.2-0.3C130.7,31.4,128.6,29.3,126.5,27z"/>
	<path class="st15" d="M102.7,75.1c-1.5,1.5-3.4,2-5.5,1.5c-1.8-0.5-3.1-1.5-3.6-3.3c-0.4-1.6,0.1-3.3,1.1-3.9
		c1.1-0.7,3-0.4,4.2,0.7c0.6,0.5,1.1,1.2,1.5,1.9C101.2,72.8,101.9,73.9,102.7,75.1z"/>
	<path class="st16" d="M110.7,80.1c-1.5,2.1-3.8,2.2-6.1,2.1c-1.8-0.1-3.6-0.4-4.6-2.3c1.9-1,3.7-1.9,5.4-2.8
		C107,78,108.8,79,110.7,80.1z"/>
	<path class="st17" d="M120.5,47.3c0,2.5-2.1,4.6-4.6,4.6c-2.4,0-4.5-2.1-4.5-4.5c0-2.5,2-4.6,4.5-4.7
		C118.4,42.7,120.6,44.8,120.5,47.3z M117.4,47.9c0.1-1.5-0.5-2.2-1.4-2.1c-0.6,0.1-1.4,0.8-1.5,1.3c-0.2,0.8,0.4,1.6,1.3,1.5
		C116.4,48.7,117,48.1,117.4,47.9z"/>
	<path class="st17" d="M99.4,47.3c0,2.5-2.1,4.6-4.6,4.6c-2.5,0-4.6-2.1-4.6-4.6c0-2.4,2.1-4.5,4.5-4.5
		C97.3,42.7,99.4,44.8,99.4,47.3z M94.5,49c0.2,0,0.4,0,0.6,0c0.4-0.6,1.1-1.1,1.1-1.7c0.1-0.9-0.6-1.5-1.5-1.5
		c-0.9,0-1.5,0.6-1.3,1.5C93.5,47.9,94.1,48.4,94.5,49z"/>
	<path class="st18" d="M117.4,47.9c-0.4,0.2-1,0.7-1.6,0.8c-0.9,0.1-1.5-0.7-1.3-1.5c0.2-0.6,1-1.3,1.5-1.3
		C116.9,45.7,117.5,46.4,117.4,47.9z"/>
	<path class="st18" d="M94.5,49c-0.4-0.6-1-1.1-1.1-1.7c-0.2-0.9,0.5-1.5,1.3-1.5c0.9,0,1.6,0.6,1.5,1.5c-0.1,0.6-0.7,1.1-1.1,1.7
		C94.9,49,94.7,49,94.5,49z"/>
</g>
</svg>
