<?xml version="1.0" encoding="utf-8"?>
<!-- Generator: Adobe Illustrator 20.1.0, SVG Export Plug-In . SVG Version: 6.00 Build 0)  -->
<svg version="1.1" id="圖層_1" xmlns="http://www.w3.org/2000/svg" xmlns:xlink="http://www.w3.org/1999/xlink" x="0px" y="0px"
	 viewBox="0 0 227 150" style="enable-background:new 0 0 227 150;" xml:space="preserve">
<style type="text/css">
	.st0{fill:#424242;}
	.st1{fill:#464545;}
	.st2{fill:#7ACCE9;}
	.st3{fill:#0D3945;}
	.st4{fill:#1F434E;}
	.st5{fill:#274954;}
	.st6{fill:#1F434F;}
	.st7{fill:#1C414D;}
	.st8{fill:#234651;}
	.st9{fill:#264853;}
	.st10{fill:#2B4B56;}
	.st11{fill:#224551;}
	.st12{fill:#224550;}
	.st13{fill:#0A3946;}
	.st14{fill:#7ACAE7;}
</style>
<g>
	<path class="st0" d="M197.8,77.2c0,8.9,0,17.7,0,26.6c0,3.6-1.6,6-4.9,7.4c-25.9,11-51.8,22.1-77.6,33.2c-2.3,1-4.4,1-6.7-0.1
		c-25-11.1-49.9-22.1-74.9-33.2c-3-1.3-4.5-3.7-4.5-7c0-17.9,0-35.9,0-53.8c0-3.1,1.4-5.4,4.2-6.9c25-12.5,50.1-25,75.1-37.5
		c2.3-1.1,4.5-1.2,6.8-0.1c26,12.5,52,25,78.1,37.5c2.9,1.4,4.3,3.7,4.3,6.9C197.8,59.3,197.8,68.2,197.8,77.2z M32.5,77.1
		c0,8.9,0,17.9,0,26.8c0,2,0.8,3.4,2.7,4.2c24.9,11,49.8,22.1,74.7,33.1c1.5,0.7,2.8,0.7,4.3,0c25.9-11.1,51.8-22.1,77.6-33.1
		c1.9-0.8,2.8-2.1,2.8-4.2c0-17.8,0-35.7,0-53.5c0-1.9-0.9-3.3-2.6-4.1C166,33.8,140.1,21.4,114.2,8.9c-1.5-0.7-3-0.7-4.5,0
		C84.9,21.4,60,33.8,35,46.2c-1.8,0.9-2.6,2.2-2.6,4.2C32.5,59.3,32.5,68.2,32.5,77.1z"/>
	<path class="st1" d="M190.1,77.2c0,8.7,0,17.3,0,26c0,0.5-0.1,0.8-0.6,1c-25.6,10.9-51.3,21.9-76.9,32.8c-0.3,0.1-0.8,0.1-1.1,0
		c-24.6-10.9-49.2-21.8-73.8-32.7c-0.5-0.2-0.7-0.5-0.7-1.1c0-17.4,0-34.8,0-52.3c0-0.6,0.2-0.9,0.7-1.1
		c24.6-12.2,49.2-24.5,73.7-36.8c0.7-0.3,1.1-0.2,1.7,0.1c25.3,12.2,50.6,24.3,75.9,36.5c1,0.5,1.3,1,1.3,2
		C190.1,60.2,190.1,68.7,190.1,77.2z M38.6,77c0,8.4,0,16.7,0,25.1c0,0.6,0.1,0.9,0.7,1.2c24,10.6,48.1,21.3,72.1,31.9
		c0.5,0.2,0.9,0.2,1.4,0c6.8-2.9,13.7-5.9,20.5-8.8c18.2-7.8,36.4-15.5,54.5-23.3c0.5-0.2,0.6-0.5,0.6-1c0-16.7,0-33.4,0-50.1
		c0-0.5-0.1-0.8-0.6-1c-25.1-12-50.1-24.1-75.2-36.1c-0.5-0.2-0.8-0.2-1.2,0c-24.1,12-48.1,24-72.2,36c-0.5,0.3-0.7,0.6-0.7,1.1
		C38.6,60.4,38.6,68.7,38.6,77z"/>
	<path class="st2" d="M97,102.6c-1.9-0.7-3.8-1.4-5.7-2.2c-6.1-2.7-9.6-7.5-10.8-14c-1-5.3-1-10.6,0.9-15.7c0.9-2.4,2.1-4.7,3.3-7
		c1.5-3,3-6,3.8-9.3c0.5-2.2,0-4.2-1.5-5.9c-1.5-1.7-3.1-3.4-4.6-5.1c-0.8-0.9-1.4-2-1.6-3.3c-0.3-2,0.9-3.9,3.1-4.9
		c1.8-0.8,3.6-1.1,5.5-1.2c3.2-0.2,6.4,0,9.5,0.8c0.2,0,0.4,0,0.5,0c0,0,0,0,0,0c0.2,0.1,0.3,0.1,0.5,0.2l0,0c0.1,0,0.1,0,0.2,0.1
		c0.3,0.1,0.5,0.3,0.8,0.4c3.9,2.2,6.5,5.6,8.6,9.4c2.2,4,3.9,8.2,5.9,12.2c3.1,6.4,8.1,10.7,14.7,13.3c4.8,1.8,9.5,3.8,13.8,6.7
		c4.8,3.1,9.2,6.6,12.3,11.5c1.9,3,3.1,6.2,3.1,9.8c0,3.8-1.3,7.3-2.9,10.7c-2.4,4.8-6.7,7.1-11.5,8.8c-0.9,0.3-1.9,0.4-2.8,0.6
		c-3.3-0.2-6.7-0.4-9.8-1.7c0-0.1,0-0.2,0-0.3c1.6-0.7,3.2-1.3,4.8-2c-1.6-1.7-3.1-3.3-4.6-4.9c0.6,0,1.2,0.1,1.8,0.2
		c2.3,0.3,4.6,1.1,6.9,1c2.6,0,4.3-1.3,5.4-3.4c1-2,0.6-3.9-0.7-5.6c-3-4.1-6.9-6.6-12.2-6.4c0.9,0.4,1.6,0.8,2.4,1.2
		c0.1,0.1,0.1,0.1,0.2,0.2c2,1.3,3.9,2.7,5.3,4.7c1,1.4,1.8,3,0.8,4.8c-0.2-0.2-0.3-0.4-0.5-0.5c-2.1-1.7-4.5-2.7-7-3.2
		c-3.1-0.7-6.3-0.4-9.5-0.1c-0.9,0.1-1.8,0.3-2.7,0.4c-0.7,0.1-1.4,0.2-2,0.3c-3.4,0.3-6.7,0.6-10.1,1c-0.7,0.1-1-0.3-1.1-0.9
		c-0.1-0.3,0-0.7,0.1-1.1c0.2-0.7,0.4-1.5,0.6-2.2c-0.8,1-1.6,2-1.7,3.3c0,0.3,0.1,0.7,0.2,1c0.4,1,1.2,1.7,2.2,2
		c1.3,0.4,2.7,0.7,4,0.9c2.1,0.3,4.3,0.6,6.3,1.4c0.3,0.1,0.6,0.3,1,0.5c-4.1,1.2-8.2,0.5-12.2,0.2c-0.2-0.1-0.4-0.3-0.6-0.4
		c-1-0.5-2.1-0.9-3.1-1.5c-2.3-1.4-3.9-3.1-3.8-6c0.1-1.3-0.4-2.5-1.1-3.6c-0.5-0.8-1.4-1.2-2.1-1c-0.7,0.2-1.1,1.1-1.1,2
		C97.8,99.7,97.4,101.1,97,102.6z M93.4,41.1c-0.3,0.7-0.5,1.6-1,2c-0.5,0.4-1.3,0.4-2.1,0.5c-0.1,1.4,1,2.6,2.6,2.7
		c1.3,0.1,2.6-1.1,2.7-2.5C95.7,42.4,94.6,41.2,93.4,41.1z"/>
	<path class="st3" d="M142.4,105.9c1-1.8,0.2-3.3-0.8-4.8c-1.4-2-3.3-3.4-5.3-4.7c-0.1,0-0.1-0.1-0.2-0.2c0.3,0.1,0.6,0.1,0.8,0.2
		c2,0.9,3.7,2.3,5.1,4c1.1,1.3,2,2.8,1.7,4.6c-0.3,2-2.2,4-4.3,4.2c-1.2,0.1-2.4,0-3.6-0.1c-2.1-0.3-4.2-0.7-6.2-1
		c-0.5-0.1-1,0.1-1.6,0.2c1.8,1.8,3.5,3.4,5.2,5c-0.7,0.3-1.3,0.5-1.9,0.8c-0.8,0.4-1.6,0.7-2.3,1.2c-0.6,0.4-0.6,0.7,0,1.1
		c0.5,0.2,0.9,0.5,1.4,0.6c2.1,0.4,4.1,0.9,6.2,1.1c1.8,0.2,3.6,0,5.4,0c0.9-0.2,1.9-0.3,2.8-0.6c4.8-1.6,9.1-4,11.5-8.8
		c1.6-3.4,2.9-6.9,2.9-10.7c0-3.6-1.2-6.8-3.1-9.8c-3.1-4.9-7.5-8.4-12.3-11.5c-4.3-2.8-9-4.8-13.8-6.7c-6.6-2.6-11.6-6.9-14.7-13.3
		c-2-4.1-3.7-8.3-5.9-12.2c-2.1-3.8-4.7-7.2-8.6-9.4c-0.3-0.1-0.5-0.3-0.8-0.4c-0.1,0-0.1,0-0.2-0.1c0,0,0,0,0,0
		c-0.2-0.1-0.3-0.1-0.5-0.2c0,0,0,0,0,0c-1.8-0.9-3.6-1.3-5.6-1.6c-3.5-0.5-6.9-0.6-10.4,0.1c-2.2,0.4-4.1,1.3-5.4,3.2
		c-0.8,1.2-0.9,2.7-1.2,4.2c0.3-0.1,0.5-0.1,0.7-0.2c0.9-0.2,1.5,0,1.8,0.8c0.3,0.8,0,1.4-0.7,1.9c-1,0.8-2.2,1.5-3,2.4
		c-1.8,2-2.4,4.6-2.7,7.2c-0.4,3.4,0,6.8,0.4,10.1c0,0.3,0.1,0.7,0.1,1c-0.1,0-0.2,0.1-0.3,0.1c-0.5-1-1.1-1.9-1.5-2.9
		c-1.6-5-1.9-10,0.2-14.9c0.7-1.8,1.9-3.2,4-4.9c-0.7-1.8-0.8-3.6-0.1-5.5c0.9-2.7,3-4,5.5-5c1.8-0.7,3.7-1,5.7-1.1
		c3.5-0.1,7,0.1,10.4,0.9c3,0.7,5.6,2.2,8,4.1c1.8,1.5,3.3,3.3,4.7,5.2c2.6,3.3,4.1,7.2,5.8,11c1.5,3.2,3,6.4,5.1,9.3
		c2.4,3.2,5.6,5.2,9.2,6.7c3.2,1.4,6.5,2.7,9.6,4.3c6.6,3.4,12.8,7.5,17.4,13.6c3.2,4.2,5,8.9,4.8,14.3c-0.1,2.5-0.7,4.8-1.6,7.1
		c-1.4,3.8-3.5,7.2-6.8,9.6c-2.8,2.1-6,3.4-9.5,4.2c-3.4,0.8-6.8,0.4-10.1-0.1c-2-0.3-4-0.8-5.9-1.8c-1.8-1.1-1.9-2.8-0.2-4.1
		c0.6-0.5,1.3-0.8,2.1-1.2c-1.1-1.2-2.2-2.5-3.4-3.7c-0.9-1-0.9-1.3,0.2-1.9c1.8-1,3.7-0.7,5.6-0.3c2,0.4,3.9,0.8,5.9,1.2
		c1.3,0.2,2.5-0.3,3.4-1.3C141.8,106.6,142.1,106.3,142.4,105.9z"/>
	<path class="st3" d="M109.9,108.8c4.1,0.4,8.1,1.1,12.2-0.2c-0.3-0.2-0.6-0.4-1-0.5c-2-0.8-4.2-1.1-6.3-1.4c-1.4-0.2-2.7-0.6-4-0.9
		c-1-0.3-1.8-1-2.2-2c-0.1-0.3-0.2-0.7-0.2-1c0.1-1.3,0.9-2.3,1.7-3.3c-0.2,0.7-0.5,1.5-0.6,2.2c-0.1,0.3-0.1,0.7-0.1,1.1
		c0.1,0.6,0.4,0.9,1.1,0.9c3.4-0.3,6.7-0.6,10.1-1c0.7-0.1,1.4-0.2,2-0.3c0.1,0,0.2,0.1,0.3,0.1c3.5-0.2,7-0.3,10.4,0.4
		c2.3,0.4,4.6,1.1,6.5,2.4c0.6,0.4,1,1,1.5,1.5c-2.8-1.8-5.9-2.7-9.2-3c-4.1-0.3-8.2,0.2-12.3,0.7c-0.8,0.1-1.6,0.2-2.6,0.3
		c0.4,0.1,0.6,0.2,0.9,0.2c1.8,0.4,3.7,0.7,5.3,1.6c0.2,0.1,0.5,0.3,0.7,0.5c1.3,1.1,1.2,2.4-0.2,3.3c-1.3,0.8-2.7,1.2-4.1,1.2
		c-3.9,0.2-7.7,0.3-11.6-0.1c-2.5-0.3-5-0.6-7.3-1.7c-1.6-0.8-2.8-1.9-3.5-3.5c-0.2-0.6-0.6-0.7-1.1-0.8c-1.6-0.3-3.2-0.6-4.7-0.9
		c-0.6,1.1-1.1,2.3-1.8,3.4c-1.2,1.8-3.1,2.2-5,2.4c-4,0.4-8.1,0.7-12.1,0.4c-1.9-0.2-3.7-0.4-5.5-1.2c-0.1,0-0.2-0.1-0.3-0.1
		c-0.9-0.4-1.6-1-1.6-2c0-1.1,0.7-1.8,1.7-2c1.6-0.5,3.2-0.9,4.9-1.1c2-0.3,4-0.3,5.9-0.5c2.3-0.3,3.2-1.5,3.8-3.9
		c0-0.2-0.2-0.5-0.3-0.6c-3.6-3.4-6-7.5-7-12.3C72.9,79.4,73.4,72,77,64.9c1.4-2.6,2.7-5.3,4-8c0.3-0.7,0.5-1.4,0.7-2.1
		c0.7-2.2,0.2-4.2-1-6.1c-0.5-0.8-1.1-1.6-1.6-2.4c-0.2-0.4-0.1-0.9-0.2-1.3c0.4,0,0.9-0.1,1.2,0.1c3.5,1.6,5.5,5.7,4.5,9.6
		c-0.6,2.1-1.5,4.2-2.4,6.2c-1.3,3-3,5.9-4.2,8.9c-1.9,4.7-2,9.7-1.2,14.7c0.3,1.8,0.7,3.6,1.3,5.3c1.8,5,5.3,8.4,9.9,10.7
		c2.7,1.4,5.7,2.2,8.8,2.7c0-0.2,0-0.5,0-0.7c0.4-1.5,0.8-2.9,1.2-4.4c0.3-0.3,0.5-0.5,0.8-0.8c0.2,0.4,0.5,0.7,0.6,1.1
		c0.2,1.5,0.4,3,0.4,4.6c0,2.3,1,3.8,3.2,4.6C105.3,108.4,107.6,108.7,109.9,108.8z M73.7,108.2c3.2-0.1,6.3-0.2,9.5-0.4
		c0.5,0,0.9-0.1,1.4-0.1c2.4-0.2,3.9-1.5,4.3-4c-1-0.5-2.1-0.9-3.1-1.4c-1-0.7-2-1.3-3.1-2c-0.2,2.9-1.4,4.4-3.9,5.2
		c-1.1,0.3-2.3,0.5-3.5,0.7c-1.7,0.3-3.5,0.5-5.2,0.8c-0.3,0-0.6,0.2-0.8,0.4c0,0.1,0,0.2,0,0.3C70.7,107.9,72.2,108,73.7,108.2z"/>
	<path class="st4" d="M105,126.2c-0.4-1-0.7-1.8-1-2.6c-0.1,0-0.1,0-0.2,0c-0.1,0.5-0.1,1.1-0.3,1.6c0,0.2-0.3,0.3-0.4,0.5
		c-0.1-0.2-0.3-0.4-0.3-0.6c0.1-0.8,0.3-1.7,0.5-2.5c0-0.1,0.2-0.3,0.3-0.3c0.3,0.1,0.6,0.2,0.7,0.5c0.2,0.5,0.4,1,0.6,1.7
		c0.2-0.9,0.4-1.5,0.7-2.5c0.3,0.4,0.6,0.7,0.5,0.8C105.8,124,106,125.3,105,126.2z"/>
	<path class="st5" d="M112.3,123.7c0.5,0,0.9,0.1,1.5,0.1c-0.6,0.8-1.8,0.2-2,1.3c0.7,0,1.3,0,2,0c-0.4,0.7-1.6,1-2.6,0.8
		c0.1-1,0.2-2,0.4-3.1c0-0.2,0.3-0.4,0.5-0.5c0.6-0.1,1.2,0,1.7,0c0,0.1,0,0.2,0.1,0.3c-0.6,0.3-1.2,0.6-1.7,0.8
		C112.2,123.6,112.3,123.7,112.3,123.7z"/>
	<path class="st6" d="M119.5,125.1c0.4,0.2,0.6,0.3,1,0.5c-0.3,0.2-0.4,0.4-0.5,0.4c-0.5,0.1-1,0.2-1.5,0.3c-0.2,0-0.5-0.2-0.8-0.2
		c0.1-0.2,0.2-0.5,0.3-0.7c0.3-0.3,0.7-0.5,1-0.9c0.2-0.3,0.4-0.7,0.5-1.1c-0.1-0.1-0.1-0.1-0.2-0.2c-0.3,0.1-0.5,0.2-0.8,0.3
		c-0.2,0-0.4-0.1-0.5-0.2c0.1-0.2,0.1-0.4,0.3-0.5c0.5-0.4,1-0.6,1.6-0.1c0.5,0.4,0.5,1,0.1,1.7
		C119.8,124.6,119.7,124.8,119.5,125.1z"/>
	<path class="st7" d="M128.2,126.5c-0.5-1.1,1.1-0.9,1-1.7c-0.2,0-0.5-0.1-0.7-0.2c-0.3-0.2-0.9-0.6-0.9-0.7c0.2-0.5,0.5-1.1,1-1.4
		c0.2-0.2,0.9,0,1.1,0.3C130.8,124,130,125.9,128.2,126.5z M128.5,123.3c-0.1,0.2-0.1,0.3-0.2,0.5c0.3,0.1,0.6,0.3,0.9,0.4
		c0,0,0.2-0.3,0.3-0.4C129.1,123.6,128.8,123.5,128.5,123.3z"/>
	<path class="st8" d="M124.3,123.9c-0.4,0.7-0.6,1.3-1.1,1.8c-0.2,0.2-0.8,0.3-1.1,0.2c-0.3-0.1-0.6-0.6-0.6-0.9
		c0.1-0.7,0.2-1.4,0.6-1.9c0.2-0.3,1-0.6,1.3-0.5C123.8,122.7,124,123.4,124.3,123.9z M122.3,125.4c0.9-0.8,1.2-1.4,1.1-2.2
		C122.4,123.6,122.1,124.2,122.3,125.4z"/>
	<path class="st9" d="M98,123.5c0.4,0.5,1.2,1.2,1,1.4c-0.2,0.5-0.9,0.9-1.5,1.2c-0.2,0.1-0.6-0.4-0.9-0.6c0.7-0.3,1.3-0.5,1.8-0.7
		c0-0.1,0-0.2-0.1-0.3c-0.4-0.1-0.7-0.2-1.1-0.3c-0.5-0.2-0.6-0.5-0.3-1c0.5-0.7,1.4-1.1,2-0.8c0.1,0.1,0.2,0.2,0.3,0.3
		c-0.1,0.1-0.2,0.3-0.3,0.3C98.5,123.3,98.2,123.5,98,123.5z"/>
	<path class="st10" d="M110,123c-1.6,0.2-2.2,0.9-1.8,2.4c0.5-0.3,1-0.5,1.6-0.8c0,0.9-0.5,1.4-1.2,1.4c-0.8,0-1.1-0.3-1.2-1.2
		c-0.1-1.1,0.5-1.7,1.3-2.2C109.2,122.3,109.7,122.4,110,123z"/>
	<path class="st11" d="M100.5,126.2c0.1-1.3,0.3-2.5,0.4-3.8c0.5-0.1,0.8,0,0.7,0.5c-0.1,0.9-0.2,1.8-0.4,2.7c0,0.2-0.2,0.4-0.3,0.7
		C100.8,126.3,100.7,126.3,100.5,126.2z"/>
	<path class="st12" d="M125.7,126.2c-0.1-0.3-0.2-0.6-0.2-0.8c0-0.7,0.6-1.5,0-2.2c0,0,0.3-0.4,0.6-0.6c0,0,0.5,0.3,0.5,0.4
		c-0.1,1.1-0.3,2.1-0.4,3.2C125.9,126.1,125.8,126.1,125.7,126.2z"/>
	<path class="st13" d="M93.4,41.1c1.2,0.1,2.3,1.3,2.2,2.7c-0.1,1.4-1.3,2.6-2.7,2.5c-1.6-0.1-2.7-1.3-2.6-2.7
		c0.7-0.2,1.6-0.1,2.1-0.5C93,42.7,93.1,41.9,93.4,41.1z"/>
	<path class="st14" d="M73.7,108.2c1.1-0.2,2.2-0.6,3.3-0.7c1.9-0.2,3.7-0.4,5.5-1.2c1.8-0.8,3-2,3.3-4c1.1,0.5,2.1,0.9,3.1,1.4
		c-0.4,2.5-1.9,3.8-4.3,4c-0.5,0-0.9,0.1-1.4,0.1C80,108,76.8,108.1,73.7,108.2z"/>
</g>
</svg>
